<svg width="188" height="188" viewBox="0 0 188 188" xmlns="http://www.w3.org/2000/svg">
<path d="M127.783 105.151V121.096C127.783 123.858 125.544 126.096 122.783 126.096H65.2178C62.4563 126.096 60.2178 123.858 60.2178 121.096V61.9097H64.9473L94.0002 95.6922L121.702 61.9097H127.783V85.5575" stroke="currentColor"  stroke-width="12"/>
<path d="M147.099 25.0298L148.833 23.0372L157.413 30.501L155.679 32.4935L152.601 29.8159L145.504 37.9744L143.085 35.8703L150.182 27.7117L147.099 25.0298ZM150.923 43.8575C150.222 43.063 149.781 42.2367 149.602 41.3784C149.428 40.5206 149.498 39.6794 149.81 38.8547C150.128 38.0305 150.674 37.2763 151.449 36.5921C152.227 35.905 153.043 35.4561 153.897 35.2454C154.757 35.035 155.6 35.0703 156.427 35.3513C157.26 35.6326 158.027 36.1705 158.728 36.9649C159.43 37.7594 159.867 38.5855 160.04 39.4434C160.22 40.3016 160.151 41.1429 159.833 41.9671C159.521 42.7917 158.976 43.5476 158.198 44.2347C157.423 44.9188 156.606 45.3661 155.745 45.5765C154.891 45.7872 154.048 45.7519 153.215 45.4706C152.389 45.1896 151.625 44.6519 150.923 43.8575ZM152.753 42.2676C153.008 42.5565 153.313 42.7228 153.667 42.7665C154.021 42.8102 154.402 42.7454 154.81 42.5722C155.221 42.4022 155.633 42.1346 156.047 41.7693C156.467 41.3982 156.787 41.0193 157.006 40.6327C157.229 40.2493 157.34 39.8793 157.341 39.5224C157.341 39.1656 157.214 38.8428 156.959 38.5539C156.695 38.2551 156.383 38.0806 156.023 38.0304C155.666 37.9834 155.282 38.0449 154.871 38.2148C154.463 38.3881 154.049 38.6603 153.629 39.0314C153.215 39.3966 152.897 39.771 152.675 40.1543C152.456 40.541 152.347 40.9144 152.35 41.2744C152.355 41.6378 152.489 41.9689 152.753 42.2676ZM155.299 55.6975L159.825 52.7159L159.789 52.661C159.454 52.7187 159.105 52.718 158.741 52.6589C158.377 52.5998 158.022 52.4588 157.675 52.2358C157.332 52.0165 157.02 51.6947 156.741 51.2704C156.331 50.6487 156.12 49.9776 156.107 49.2572C156.093 48.5368 156.309 47.8127 156.753 47.0851C157.196 46.3575 157.895 45.6792 158.85 45.0504C159.841 44.3974 160.76 44.0174 161.608 43.9103C162.455 43.8031 163.2 43.9026 163.842 44.2086C164.486 44.5182 165.002 44.9675 165.39 45.5563C165.682 45.9988 165.854 46.428 165.908 46.8437C165.965 47.257 165.943 47.6444 165.84 48.0059C165.737 48.3673 165.593 48.6854 165.406 48.9601L165.461 49.0424L166.903 48.0918L168.653 50.7471L157.066 58.3803L155.299 55.6975ZM159.445 50.8261C159.66 51.1516 159.934 51.3693 160.269 51.4793C160.607 51.5868 160.985 51.5919 161.404 51.4946C161.822 51.3973 162.258 51.1992 162.712 50.9004C163.173 50.5969 163.528 50.2733 163.779 49.9296C164.033 49.5897 164.172 49.2436 164.197 48.8915C164.224 48.543 164.131 48.206 163.916 47.8805C163.697 47.5477 163.42 47.3263 163.085 47.2164C162.751 47.1064 162.377 47.1007 161.965 47.1993C161.555 47.3015 161.123 47.502 160.67 47.8008C160.216 48.0996 159.861 48.4201 159.604 48.7625C159.347 49.1049 159.2 49.4509 159.163 49.8005C159.132 50.1514 159.226 50.4932 159.445 50.8261ZM167.462 61.2544L172.649 58.8075L174.017 61.707L164.89 66.0123L163.584 63.2435L165.283 62.4419L165.238 62.3468C164.585 62.4082 163.978 62.2729 163.42 61.9408C162.867 61.6108 162.429 61.1031 162.106 60.4178C161.812 59.7959 161.697 59.182 161.76 58.5761C161.823 57.9702 162.048 57.416 162.436 56.9135C162.827 56.4092 163.367 55.9925 164.054 55.6634L169.871 52.9193L171.242 55.8248L165.995 58.2998C165.502 58.5373 165.173 58.8521 165.01 59.2441C164.846 59.6361 164.869 60.0539 165.078 60.4976C165.214 60.7867 165.4 61.0163 165.635 61.1862C165.876 61.3583 166.151 61.4537 166.46 61.4725C166.775 61.4934 167.109 61.4207 167.462 61.2544ZM166.517 71.5986C166.202 70.5912 166.128 69.6597 166.297 68.804C166.471 67.9511 166.866 67.2126 167.483 66.5882C168.105 65.9668 168.929 65.496 169.953 65.1757C170.948 64.8646 171.879 64.7891 172.746 64.9494C173.617 65.1083 174.371 65.4805 175.008 66.0658C175.65 66.6499 176.122 67.4268 176.426 68.3966C176.64 69.0822 176.729 69.7425 176.694 70.3777C176.659 71.0128 176.497 71.6027 176.208 72.1472C175.919 72.6918 175.504 73.1751 174.961 73.5972C174.423 74.0179 173.759 74.3519 172.969 74.5989L172.204 74.8381L169.586 66.4675L171.367 65.9106L173.092 71.4283C173.417 71.3222 173.683 71.154 173.891 70.9238C174.099 70.6936 174.233 70.4246 174.293 70.1168C174.358 69.8118 174.338 69.4901 174.232 69.1515C174.125 68.8087 173.951 68.5257 173.712 68.3023C173.476 68.0777 173.202 67.9271 172.889 67.8506C172.58 67.7728 172.259 67.7814 171.926 67.8763L170.114 68.443C169.721 68.5659 169.401 68.7511 169.152 68.9985C168.908 69.2447 168.749 69.5354 168.675 69.8706C168.601 70.2059 168.625 70.5699 168.748 70.9629C168.833 71.2346 168.947 71.4694 169.092 71.6675C169.237 71.8655 169.407 72.021 169.603 72.1341C169.799 72.2472 170.016 72.3101 170.254 72.3229L171.053 75.1637C170.385 75.244 169.755 75.1588 169.162 74.9081C168.576 74.6603 168.053 74.2571 167.593 73.6986C167.138 73.1388 166.78 72.4388 166.517 71.5986ZM165.229 80.7955L179.013 79.2039L179.377 82.3626L177.661 82.5608L177.672 82.6587C177.992 82.754 178.307 82.905 178.617 83.1117C178.928 83.3227 179.195 83.6049 179.416 83.9585C179.643 84.3159 179.786 84.7579 179.847 85.2843C179.927 85.9805 179.82 86.652 179.524 87.299C179.229 87.9503 178.722 88.507 178.004 88.9691C177.286 89.4312 176.337 89.7303 175.158 89.8664C174.023 89.9976 173.051 89.9268 172.244 89.6541C171.437 89.3857 170.807 88.9691 170.353 88.4042C169.901 87.8436 169.632 87.1936 169.546 86.4539C169.488 85.9492 169.52 85.5024 169.643 85.1135C169.765 84.7246 169.947 84.3884 170.188 84.1049C170.429 83.8257 170.696 83.6009 170.989 83.4304L170.982 83.3651L165.598 83.9868L165.229 80.7955ZM174.361 82.9087C173.822 82.971 173.36 83.0971 172.977 83.2869C172.593 83.481 172.307 83.7279 172.116 84.0277C171.931 84.3312 171.861 84.6766 171.905 85.0639C171.951 85.4554 172.098 85.7757 172.347 86.0247C172.601 86.2732 172.936 86.4439 173.352 86.5369C173.769 86.6343 174.247 86.6518 174.786 86.5895C175.326 86.5272 175.785 86.4014 176.165 86.2121C176.545 86.0272 176.827 85.7851 177.013 85.4859C177.2 85.191 177.27 84.8456 177.224 84.4497C177.179 84.0581 177.034 83.7376 176.789 83.4881C176.544 83.2386 176.215 83.0628 175.802 82.9605C175.39 82.8627 174.91 82.8454 174.361 82.9087ZM169.929 94.0341C169.944 93.3905 170.063 92.8214 170.289 92.327C170.519 91.837 170.856 91.4523 171.3 91.1729C171.748 90.898 172.305 90.7678 172.971 90.7824C173.531 90.7947 174.002 90.9036 174.383 91.1091C174.764 91.3145 175.071 91.5929 175.305 91.9441C175.538 92.2953 175.711 92.6977 175.823 93.1514C175.941 93.6052 176.015 94.0887 176.048 94.602C176.088 95.1767 176.133 95.6399 176.182 95.9914C176.235 96.3431 176.315 96.5989 176.421 96.759C176.531 96.9235 176.69 97.008 176.895 97.0125L176.928 97.0132C177.265 97.0206 177.528 96.9103 177.717 96.6822C177.906 96.4542 178.005 96.1431 178.014 95.749C178.023 95.3243 177.939 94.9808 177.76 94.7184C177.582 94.456 177.332 94.2862 177.009 94.2091L177.179 91.2492C177.79 91.3502 178.333 91.5877 178.807 91.9617C179.285 92.3402 179.654 92.8521 179.916 93.4974C180.182 94.1472 180.306 94.9231 180.286 95.8251C180.272 96.4688 180.182 97.0604 180.017 97.6C179.856 98.1397 179.627 98.6078 179.329 99.0043C179.036 99.4009 178.678 99.7041 178.258 99.914C177.837 100.128 177.359 100.229 176.825 100.218L169.968 100.067L170.034 97.046L171.44 97.0769L171.442 96.998C171.104 96.811 170.82 96.5748 170.59 96.2894C170.359 96.0084 170.189 95.6783 170.079 95.2991C169.969 94.9243 169.919 94.5027 169.929 94.0341ZM172.009 95.072C172.002 95.4179 172.065 95.7303 172.199 96.0093C172.333 96.2926 172.521 96.5201 172.763 96.6919C173.008 96.8637 173.296 96.9533 173.624 96.9605L174.583 96.9815C174.537 96.8885 174.495 96.7759 174.459 96.6436C174.422 96.5158 174.388 96.3749 174.356 96.2208C174.325 96.0668 174.298 95.9085 174.275 95.7459C174.252 95.5833 174.232 95.4274 174.213 95.278C174.171 94.9748 174.103 94.7149 174.007 94.4981C173.91 94.2857 173.783 94.1208 173.623 94.0034C173.468 93.8905 173.281 93.8316 173.062 93.8268C172.729 93.8195 172.473 93.9322 172.292 94.1648C172.112 94.4018 172.018 94.7042 172.009 95.072ZM169.871 101.29L179.876 102.598L179.472 105.692L177.648 105.454L177.634 105.558C178.27 105.827 178.722 106.188 178.99 106.643C179.261 107.098 179.362 107.599 179.29 108.146C179.271 108.294 179.24 108.445 179.198 108.598C179.16 108.752 179.113 108.894 179.056 109.023L176.288 108.661C176.36 108.516 176.427 108.322 176.49 108.078C176.552 107.839 176.595 107.624 176.62 107.433C176.67 107.055 176.63 106.703 176.5 106.377C176.374 106.056 176.173 105.789 175.896 105.576C175.623 105.368 175.286 105.238 174.887 105.185L169.454 104.475L169.871 101.29ZM168.098 110.618C168.25 109.992 168.489 109.462 168.816 109.027C169.145 108.598 169.557 108.295 170.051 108.117C170.548 107.945 171.12 107.938 171.767 108.095C172.312 108.227 172.748 108.435 173.076 108.717C173.404 109 173.644 109.338 173.797 109.731C173.949 110.124 174.032 110.554 174.044 111.021C174.061 111.49 174.03 111.978 173.952 112.486C173.867 113.056 173.812 113.518 173.784 113.872C173.761 114.227 173.784 114.494 173.853 114.673C173.926 114.857 174.062 114.974 174.262 115.023L174.294 115.03C174.621 115.11 174.902 115.059 175.136 114.877C175.369 114.694 175.533 114.412 175.626 114.029C175.726 113.616 175.717 113.262 175.599 112.968C175.482 112.673 175.274 112.454 174.975 112.309L175.777 109.455C176.352 109.685 176.831 110.033 177.213 110.5C177.599 110.972 177.85 111.552 177.967 112.238C178.088 112.93 178.041 113.714 177.828 114.591C177.676 115.217 177.462 115.775 177.184 116.267C176.911 116.759 176.587 117.167 176.211 117.491C175.839 117.815 175.425 118.034 174.969 118.149C174.512 118.268 174.024 118.264 173.505 118.138L166.84 116.518L167.554 113.582L168.92 113.914L168.938 113.837C168.649 113.582 168.422 113.29 168.259 112.962C168.094 112.638 167.999 112.279 167.973 111.885C167.946 111.496 167.988 111.073 168.098 110.618ZM169.907 112.078C169.825 112.414 169.82 112.733 169.891 113.034C169.961 113.34 170.095 113.602 170.294 113.822C170.498 114.042 170.759 114.192 171.078 114.269L172.01 114.496C171.985 114.395 171.969 114.276 171.961 114.139C171.953 114.006 171.95 113.861 171.952 113.704C171.954 113.547 171.962 113.386 171.975 113.223C171.987 113.059 172.001 112.902 172.014 112.752C172.039 112.447 172.028 112.179 171.98 111.946C171.932 111.718 171.843 111.53 171.712 111.381C171.585 111.237 171.415 111.14 171.202 111.088C170.879 111.009 170.604 111.064 170.378 111.253C170.151 111.445 169.994 111.721 169.907 112.078ZM165.276 121.103L174.574 125.023L173.362 127.898L171.667 127.184L171.626 127.281C172.168 127.709 172.507 128.178 172.644 128.687C172.786 129.198 172.749 129.708 172.535 130.216C172.477 130.353 172.407 130.49 172.326 130.627C172.248 130.766 172.165 130.89 172.076 131L169.503 129.915C169.611 129.794 169.728 129.625 169.853 129.406C169.976 129.192 170.076 128.997 170.15 128.819C170.299 128.468 170.353 128.118 170.315 127.769C170.279 127.426 170.156 127.115 169.946 126.836C169.737 126.563 169.448 126.348 169.076 126.192L164.028 124.063L165.276 121.103ZM160.214 131.106C160.728 130.184 161.354 129.49 162.091 129.024C162.829 128.563 163.637 128.342 164.515 128.36C165.394 128.384 166.302 128.658 167.239 129.18C168.15 129.688 168.845 130.312 169.325 131.051C169.809 131.793 170.058 132.596 170.072 133.461C170.089 134.329 169.851 135.206 169.355 136.094C169.006 136.721 168.588 137.24 168.103 137.651C167.617 138.063 167.078 138.351 166.484 138.516C165.89 138.682 165.254 138.713 164.574 138.609C163.898 138.508 163.199 138.256 162.476 137.852L161.776 137.462L166.049 129.803L167.679 130.712L164.862 135.761C165.162 135.923 165.468 136.001 165.778 135.993C166.088 135.986 166.375 135.898 166.64 135.729C166.906 135.567 167.125 135.331 167.298 135.021C167.473 134.707 167.559 134.387 167.557 134.059C167.558 133.734 167.478 133.431 167.318 133.151C167.162 132.874 166.935 132.647 166.637 132.471L164.979 131.546C164.62 131.345 164.265 131.24 163.914 131.23C163.568 131.222 163.247 131.306 162.953 131.483C162.659 131.66 162.411 131.928 162.211 132.288C162.072 132.536 161.98 132.781 161.936 133.022C161.892 133.263 161.896 133.494 161.949 133.714C162.002 133.934 162.105 134.135 162.26 134.316L160.748 136.851C160.23 136.421 159.859 135.906 159.633 135.303C159.409 134.707 159.342 134.05 159.431 133.332C159.524 132.617 159.785 131.875 160.214 131.106ZM160.03 149.646L153.978 140.86L156.167 137.903L166.334 141.128L164.321 143.848L157.628 141.207L157.566 141.292L162.043 146.926L160.03 149.646ZM148.437 146.873C149.17 146.113 149.952 145.602 150.784 145.339C151.616 145.082 152.453 145.075 153.297 145.317C154.141 145.565 154.949 146.062 155.721 146.807C156.472 147.53 156.984 148.311 157.26 149.148C157.538 149.989 157.573 150.829 157.365 151.669C157.161 152.512 156.706 153.3 156 154.031C155.502 154.548 154.965 154.943 154.391 155.217C153.816 155.49 153.221 155.631 152.605 155.639C151.989 155.647 151.365 155.514 150.735 155.241C150.107 154.97 149.496 154.548 148.9 153.973L148.323 153.417L154.412 147.104L155.755 148.4L151.741 152.561C151.99 152.795 152.265 152.948 152.567 153.02C152.869 153.092 153.169 153.08 153.468 152.985C153.767 152.896 154.039 152.724 154.285 152.468C154.535 152.21 154.7 151.922 154.781 151.604C154.865 151.29 154.866 150.977 154.783 150.666C154.703 150.358 154.541 150.08 154.298 149.834L152.932 148.515C152.636 148.23 152.319 148.037 151.983 147.938C151.65 147.842 151.318 147.841 150.989 147.937C150.659 148.033 150.351 148.229 150.065 148.525C149.868 148.73 149.717 148.944 149.612 149.165C149.508 149.387 149.453 149.611 149.448 149.837C149.443 150.064 149.492 150.284 149.595 150.499L147.485 152.563C147.094 152.015 146.867 151.422 146.803 150.782C146.739 150.148 146.841 149.496 147.111 148.825C147.384 148.157 147.826 147.506 148.437 146.873ZM150.767 163.434L142.094 153.149L144.55 151.078L153.223 161.364L150.767 163.434ZM138.533 155.502C139.062 155.134 139.592 154.896 140.124 154.786C140.655 154.683 141.165 154.728 141.652 154.922C142.139 155.122 142.572 155.495 142.953 156.041C143.274 156.501 143.463 156.946 143.522 157.375C143.581 157.803 143.537 158.216 143.391 158.611C143.245 159.007 143.022 159.384 142.722 159.742C142.424 160.104 142.078 160.45 141.683 160.779C141.242 161.15 140.894 161.459 140.639 161.706C140.387 161.957 140.227 162.172 140.161 162.352C140.093 162.538 140.118 162.716 140.236 162.885L140.254 162.912C140.447 163.188 140.691 163.336 140.987 163.354C141.283 163.372 141.592 163.268 141.915 163.043C142.264 162.8 142.492 162.529 142.598 162.231C142.705 161.932 142.695 161.63 142.567 161.324L145.058 159.716C145.336 160.269 145.464 160.847 145.442 161.45C145.418 162.059 145.223 162.66 144.856 163.252C144.488 163.85 143.934 164.407 143.194 164.923C142.666 165.291 142.135 165.567 141.602 165.752C141.071 165.941 140.558 166.031 140.062 166.025C139.569 166.022 139.113 165.912 138.696 165.696C138.274 165.482 137.911 165.156 137.605 164.718L133.683 159.091L136.163 157.363L136.967 158.517L137.031 158.471C136.983 158.088 137.007 157.72 137.101 157.366C137.192 157.014 137.359 156.682 137.6 156.369C137.838 156.059 138.149 155.77 138.533 155.502ZM138.922 157.794C138.638 157.992 138.423 158.228 138.277 158.5C138.127 158.776 138.054 159.061 138.057 159.358C138.064 159.658 138.161 159.942 138.349 160.212L138.897 160.999C138.945 160.907 139.011 160.807 139.097 160.699C139.178 160.594 139.272 160.484 139.378 160.367C139.484 160.251 139.595 160.136 139.713 160.021C139.831 159.907 139.945 159.799 140.055 159.695C140.275 159.483 140.444 159.274 140.563 159.069C140.678 158.866 140.735 158.666 140.736 158.468C140.736 158.276 140.673 158.09 140.548 157.91C140.358 157.637 140.115 157.496 139.821 157.488C139.523 157.482 139.223 157.584 138.922 157.794ZM132.665 159.714L137.466 168.589L134.721 170.074L133.846 168.456L133.753 168.506C133.908 169.179 133.88 169.757 133.668 170.24C133.459 170.727 133.111 171.102 132.626 171.364C132.495 171.435 132.355 171.498 132.205 171.554C132.058 171.614 131.916 171.658 131.778 171.688L130.449 169.233C130.609 169.206 130.806 169.147 131.04 169.055C131.271 168.965 131.471 168.874 131.64 168.783C131.975 168.601 132.237 168.363 132.425 168.067C132.612 167.776 132.71 167.457 132.721 167.108C132.729 166.764 132.638 166.416 132.446 166.061L129.839 161.242L132.665 159.714ZM127.074 174.539L127.932 177.036L117.178 180.732L116.319 178.235L120.178 176.909L116.663 166.682L119.695 165.64L123.209 175.867L127.074 174.539ZM108.879 168.406C109.919 168.2 110.854 168.235 111.686 168.512C112.515 168.795 113.207 169.278 113.762 169.963C114.314 170.652 114.691 171.504 114.892 172.518C115.094 173.536 115.071 174.467 114.823 175.311C114.572 176.16 114.117 176.871 113.458 177.444C112.795 178.022 111.944 178.414 110.905 178.62C109.865 178.826 108.931 178.788 108.103 178.506C107.271 178.229 106.579 177.745 106.027 177.056C105.471 176.371 105.093 175.52 104.891 174.502C104.69 173.488 104.715 172.556 104.966 171.707C105.214 170.863 105.669 170.152 106.331 169.574C106.99 169.002 107.839 168.612 108.879 168.406ZM109.331 170.788C108.953 170.863 108.656 171.042 108.44 171.326C108.224 171.61 108.088 171.972 108.033 172.412C107.973 172.852 107.996 173.343 108.104 173.884C108.213 174.434 108.379 174.901 108.603 175.286C108.822 175.671 109.086 175.953 109.394 176.133C109.702 176.313 110.045 176.366 110.423 176.291C110.814 176.213 111.122 176.032 111.346 175.746C111.567 175.461 111.707 175.099 111.767 174.658C111.822 174.218 111.796 173.724 111.687 173.174C111.579 172.632 111.416 172.169 111.197 171.784C110.973 171.4 110.705 171.118 110.393 170.939C110.076 170.761 109.722 170.71 109.331 170.788ZM96.4291 166.24L96.7362 171.651L96.8018 171.647C96.9197 171.329 97.0956 171.027 97.3295 170.742C97.5633 170.457 97.8636 170.221 98.2302 170.033C98.5924 169.846 99.0272 169.738 99.5344 169.709C100.278 169.667 100.964 169.821 101.594 170.171C102.224 170.522 102.742 171.071 103.148 171.82C103.555 172.569 103.791 173.514 103.855 174.656C103.923 175.841 103.79 176.826 103.457 177.613C103.125 178.399 102.665 178.994 102.078 179.395C101.487 179.798 100.839 180.019 100.135 180.058C99.6058 180.088 99.148 180.022 98.7615 179.86C98.3753 179.702 98.0517 179.488 97.7907 179.218C97.5297 178.947 97.3271 178.663 97.1829 178.364L97.0845 178.369L97.1824 180.094L94.0078 180.275L93.2217 166.422L96.4291 166.24ZM98.5612 172.271C98.172 172.293 97.8459 172.422 97.5828 172.656C97.32 172.894 97.1256 173.219 96.9998 173.63C96.874 174.041 96.8264 174.517 96.8572 175.059C96.8885 175.61 96.9897 176.08 97.161 176.47C97.3279 176.86 97.5573 177.154 97.8493 177.352C98.1369 177.551 98.4754 177.639 98.8645 177.617C99.2624 177.594 99.5929 177.466 99.856 177.232C100.119 176.997 100.311 176.677 100.433 176.271C100.551 175.865 100.594 175.391 100.563 174.849C100.532 174.307 100.433 173.839 100.266 173.445C100.099 173.05 99.8736 172.75 99.5899 172.542C99.302 172.339 98.9591 172.249 98.5612 172.271ZM85.5107 173.987L85.0365 179.703L81.8415 179.438L82.6759 169.381L85.7268 169.634L85.5715 171.507L85.6762 171.515C85.9499 170.919 86.3702 170.461 86.9371 170.143C87.4993 169.83 88.1579 169.704 88.913 169.767C89.5983 169.824 90.1876 170.031 90.6809 170.388C91.1742 170.746 91.5416 171.218 91.7829 171.805C92.0239 172.396 92.1151 173.072 92.0565 173.831L91.5247 180.241L88.3231 179.975L88.8028 174.194C88.8437 173.648 88.7353 173.206 88.4777 172.869C88.22 172.531 87.8468 172.342 87.358 172.301C87.0393 172.275 86.7476 172.321 86.4829 172.439C86.2134 172.562 85.9933 172.753 85.8224 173.011C85.6468 173.273 85.5429 173.599 85.5107 173.987ZM77.0461 167.985C78.0754 168.219 78.9177 168.624 79.573 169.199C80.223 169.778 80.6629 170.491 80.8927 171.338C81.1173 172.188 81.1107 173.137 80.8731 174.183C80.6422 175.2 80.2397 176.043 79.6656 176.712C79.0905 177.385 78.3898 177.85 77.5634 178.107C76.7361 178.368 75.827 178.386 74.8361 178.161C74.1357 178.002 73.5198 177.748 72.9884 177.398C72.457 177.048 72.0284 176.612 71.7026 176.089C71.3767 175.566 71.1677 174.963 71.0753 174.282C70.9821 173.605 71.0271 172.863 71.2104 172.056L71.3879 171.275L79.9405 173.217L79.5273 175.036L73.8896 173.756C73.8183 174.09 73.8299 174.405 73.9244 174.7C74.019 174.996 74.1844 175.247 74.4205 175.453C74.6513 175.663 74.9397 175.807 75.2857 175.885C75.6359 175.965 75.9677 175.957 76.2812 175.862C76.5938 175.771 76.8617 175.61 77.0851 175.378C77.3076 175.15 77.4614 174.868 77.5466 174.533L77.967 172.681C78.0582 172.28 78.0592 171.909 77.9701 171.57C77.8799 171.235 77.7086 170.952 77.456 170.719C77.2034 170.487 76.8764 170.325 76.4749 170.234C76.1973 170.171 75.9365 170.152 75.6927 170.177C75.4489 170.203 75.2289 170.272 75.0326 170.384C74.8364 170.497 74.6729 170.653 74.5423 170.852L71.6847 170.116C71.9508 169.498 72.341 168.996 72.8554 168.61C73.3645 168.227 73.9759 167.977 74.6895 167.861C75.4021 167.749 76.1877 167.79 77.0461 167.985ZM69.7228 162.26L64.1913 174.985L61.2752 173.718L61.964 172.133L61.8737 172.094C61.6309 172.322 61.3424 172.519 61.008 172.684C60.6695 172.848 60.2918 172.937 59.8748 172.951C59.452 172.968 58.9976 172.871 58.5116 172.659C57.8689 172.38 57.3418 171.95 56.9302 171.37C56.5145 170.788 56.2867 170.071 56.2469 169.218C56.207 168.365 56.4237 167.394 56.8968 166.305C57.3526 165.257 57.9008 164.452 58.5415 163.89C59.1781 163.326 59.8545 162.99 60.5704 162.881C61.2824 162.77 61.9798 162.863 62.6626 163.16C63.1286 163.362 63.4991 163.614 63.7741 163.915C64.0492 164.216 64.2491 164.542 64.3738 164.892C64.4945 165.241 64.5551 165.585 64.5556 165.924L64.6159 165.95L66.7767 160.98L69.7228 162.26ZM63.3168 169.103C63.5333 168.605 63.6556 168.143 63.6837 167.716C63.7078 167.287 63.6378 166.915 63.4738 166.6C63.3041 166.287 63.0405 166.053 62.683 165.898C62.3215 165.741 61.9706 165.708 61.6302 165.799C61.2881 165.893 60.9725 166.098 60.6833 166.411C60.3901 166.723 60.1353 167.128 59.9187 167.626C59.7022 168.124 59.5808 168.585 59.5545 169.008C59.5241 169.429 59.5918 169.796 59.7575 170.106C59.9193 170.415 60.1829 170.649 60.5484 170.808C60.9099 170.966 61.2599 171.001 61.5985 170.914C61.9372 170.827 62.2542 170.631 62.5496 170.324C62.8411 170.017 63.0968 169.61 63.3168 169.103ZM55.913 159.693C56.4628 160.027 56.8952 160.416 57.21 160.859C57.5188 161.304 57.6828 161.788 57.7019 162.313C57.715 162.839 57.5484 163.386 57.2022 163.954C56.9106 164.433 56.5804 164.786 56.2116 165.013C55.8429 165.239 55.4481 165.366 55.0273 165.391C54.6065 165.417 54.1715 165.365 53.7224 165.235C53.2711 165.109 52.8152 164.931 52.3547 164.702C51.8373 164.449 51.4142 164.255 51.0853 164.122C50.7542 163.992 50.4928 163.933 50.3012 163.944C50.1036 163.957 49.9512 164.051 49.8442 164.227L49.8271 164.255C49.6517 164.543 49.6153 164.826 49.7179 165.104C49.8205 165.382 50.0401 165.623 50.3768 165.828C50.7396 166.049 51.0792 166.149 51.3956 166.126C51.712 166.103 51.9844 165.972 52.2128 165.731L54.6887 167.362C54.295 167.84 53.8176 168.19 53.2566 168.413C52.6895 168.637 52.0612 168.7 51.3715 168.603C50.6758 168.508 49.9427 168.225 49.1721 167.756C48.6222 167.421 48.1552 167.047 47.7711 166.634C47.3846 166.224 47.0945 165.791 46.9007 165.335C46.7046 164.882 46.6213 164.421 46.6506 163.952C46.6763 163.48 46.828 163.016 47.1059 162.56L50.6731 156.702L53.2542 158.274L52.523 159.474L52.5903 159.515C52.9214 159.317 53.2681 159.19 53.6305 159.133C53.9892 159.075 54.3601 159.093 54.7434 159.188C55.1228 159.281 55.5127 159.449 55.913 159.693ZM53.9723 160.972C53.6768 160.792 53.3747 160.69 53.0662 160.667C52.7539 160.641 52.4629 160.689 52.1931 160.812C51.9212 160.939 51.6997 161.142 51.5289 161.423L51.03 162.242C51.1337 162.249 51.2518 162.269 51.3846 162.304C51.5135 162.336 51.6526 162.377 51.8018 162.427C51.9509 162.477 52.1015 162.533 52.2536 162.595C52.4057 162.657 52.551 162.717 52.6896 162.776C52.9727 162.892 53.2322 162.962 53.4679 162.988C53.6998 163.011 53.9065 162.983 54.0881 162.904C54.2636 162.826 54.4083 162.694 54.5222 162.507C54.6953 162.223 54.7264 161.944 54.6156 161.672C54.5009 161.397 54.2865 161.164 53.9723 160.972ZM49.67 156.008L43.5162 164.005L41.0431 162.102L42.1649 160.645L42.0816 160.58C41.5298 160.996 40.9902 161.205 40.4628 161.208C39.9328 161.215 39.449 161.05 39.0117 160.713C38.8937 160.623 38.7789 160.52 38.6673 160.407C38.553 160.297 38.4541 160.185 38.3705 160.071L40.0732 157.858C40.1627 157.993 40.297 158.149 40.4761 158.326C40.6518 158.499 40.816 158.645 40.9687 158.763C41.2707 158.995 41.5953 159.137 41.9424 159.189C42.2834 159.241 42.6155 159.201 42.9386 159.068C43.2556 158.936 43.537 158.711 43.7827 158.391L47.124 154.049L49.67 156.008ZM42.4957 149.794C42.9602 150.24 43.2983 150.713 43.51 151.213C43.7155 151.714 43.7709 152.222 43.6762 152.739C43.5753 153.255 43.2944 153.753 42.8335 154.233C42.4454 154.638 42.0468 154.911 41.6377 155.053C41.2287 155.194 40.8159 155.232 40.3995 155.166C39.983 155.101 39.5696 154.956 39.1592 154.732C38.7458 154.511 38.339 154.239 37.939 153.916C37.4886 153.557 37.1173 153.277 36.8251 153.075C36.5298 152.877 36.2874 152.762 36.0978 152.732C35.902 152.702 35.7329 152.761 35.5904 152.91L35.5676 152.934C35.3341 153.177 35.2374 153.445 35.2776 153.739C35.3177 154.032 35.48 154.315 35.7644 154.588C36.0709 154.883 36.3811 155.053 36.6949 155.099C37.0087 155.145 37.3031 155.075 37.5781 154.89L39.6431 157.017C39.1554 157.399 38.6136 157.638 38.0177 157.734C37.4157 157.83 36.7884 157.756 36.136 157.513C35.4774 157.269 34.8226 156.835 34.1716 156.21C33.7071 155.765 33.3319 155.298 33.0462 154.812C32.7574 154.328 32.5678 153.843 32.4772 153.355C32.3835 152.871 32.4018 152.403 32.5318 151.951C32.6587 151.496 32.9072 151.076 33.2771 150.69L38.0259 145.741L40.2064 147.834L39.233 148.848L39.2899 148.903C39.656 148.781 40.022 148.731 40.388 148.755C40.7509 148.775 41.1091 148.873 41.4627 149.048C41.8132 149.221 42.1575 149.469 42.4957 149.794ZM40.3244 150.624C40.0747 150.384 39.8018 150.22 39.5057 150.13C39.2064 150.037 38.9118 150.021 38.6219 150.083C38.329 150.148 38.0688 150.299 37.8414 150.536L37.1773 151.228C37.277 151.257 37.3879 151.302 37.51 151.365C37.6289 151.424 37.7558 151.495 37.8907 151.575C38.0255 151.656 38.1605 151.743 38.2957 151.837C38.4308 151.93 38.5596 152.02 38.6823 152.107C38.9337 152.282 39.1717 152.407 39.3963 152.483C39.6177 152.556 39.8256 152.573 40.0199 152.535C40.2081 152.497 40.378 152.399 40.5296 152.241C40.7601 152.001 40.8507 151.736 40.8013 151.446C40.7488 151.153 40.5898 150.879 40.3244 150.624ZM34.8358 142.08L26.7846 148.163L24.9034 145.673L26.3711 144.564L26.3077 144.48C25.6657 144.735 25.0899 144.794 24.5805 144.657C24.0676 144.523 23.6448 144.236 23.3121 143.796C23.2224 143.677 23.1387 143.548 23.0611 143.409C22.9801 143.273 22.9143 143.138 22.8639 143.006L25.0916 141.323C25.1421 141.477 25.2304 141.663 25.3564 141.881C25.4798 142.095 25.5996 142.279 25.7157 142.433C25.9454 142.737 26.2209 142.959 26.542 143.101C26.8569 143.242 27.1878 143.291 27.5345 143.249C27.8751 143.205 28.2061 143.062 28.5276 142.819L32.8992 139.516L34.8358 142.08ZM28.6988 132.682C29.2406 133.588 29.5296 134.476 29.5659 135.348C29.5962 136.218 29.3844 137.028 28.9304 137.779C28.4703 138.529 27.7799 139.179 26.859 139.73C25.9644 140.265 25.0769 140.556 24.1965 140.603C23.3124 140.652 22.492 140.466 21.7355 140.046C20.9752 139.628 20.3343 138.983 19.8128 138.111C19.4441 137.495 19.2028 136.873 19.0888 136.248C18.9747 135.622 18.9944 135.01 19.1477 134.413C19.3011 133.817 19.5922 133.25 20.0211 132.712C20.4463 132.177 21.014 131.697 21.7245 131.273L22.4123 130.861L26.9138 138.388L25.3126 139.346L22.3453 134.384C22.0544 134.563 21.8347 134.789 21.6863 135.062C21.538 135.334 21.4707 135.627 21.4845 135.94C21.4923 136.252 21.5873 136.56 21.7694 136.864C21.9537 137.173 22.1885 137.407 22.4737 137.568C22.7551 137.732 23.0569 137.814 23.3792 137.815C23.6976 137.819 24.0076 137.736 24.309 137.565L25.9385 136.591C26.2918 136.38 26.5603 136.125 26.744 135.826C26.924 135.53 27.0108 135.21 27.0045 134.866C26.9983 134.523 26.8895 134.175 26.6782 133.822C26.5321 133.577 26.3656 133.376 26.1788 133.217C25.992 133.058 25.7901 132.947 25.5731 132.883C25.3562 132.818 25.1305 132.808 24.896 132.851L23.4553 130.276C24.0859 130.042 24.7184 129.977 25.353 130.082C25.9815 130.186 26.5843 130.456 27.1612 130.892C27.7345 131.33 28.247 131.926 28.6988 132.682ZM12.7313 123.262L23.3655 122.41L24.8336 125.783L16.9601 132.979L15.6099 129.876L21.2412 125.398L21.1992 125.301L14.0815 126.364L12.7313 123.262ZM20.9518 114.624C21.2401 115.639 21.2888 116.572 21.0979 117.423C20.9016 118.271 20.4868 118.999 19.8535 119.607C19.2148 120.211 18.3793 120.66 17.3471 120.953C16.3444 121.238 15.4118 121.289 14.5494 121.106C13.6828 120.924 12.9387 120.532 12.317 119.93C11.6911 119.329 11.2394 118.54 10.9619 117.563C10.7657 116.872 10.6937 116.209 10.7459 115.575C10.798 114.941 10.9756 114.356 11.2785 113.819C11.5814 113.282 12.0096 112.81 12.5631 112.403C13.1125 111.996 13.7853 111.68 14.5816 111.454L15.3526 111.235L17.7481 119.672L15.9533 120.181L14.3742 114.62C14.0468 114.718 13.7761 114.879 13.5621 115.103C13.3482 115.328 13.2073 115.593 13.1394 115.899C13.0661 116.202 13.0779 116.525 13.1748 116.866C13.2729 117.211 13.4388 117.499 13.6724 117.729C13.9019 117.959 14.172 118.117 14.4829 118.202C14.7896 118.288 15.1105 118.288 15.4458 118.202L17.2722 117.683C17.6682 117.571 17.9937 117.394 18.2486 117.153C18.4992 116.914 18.666 116.627 18.749 116.294C18.832 115.961 18.8172 115.596 18.7048 115.2C18.627 114.926 18.5185 114.689 18.3793 114.487C18.2401 114.285 18.074 114.125 17.8811 114.007C17.6881 113.889 17.4729 113.82 17.2353 113.801L16.5118 110.94C17.1815 110.877 17.8091 110.979 18.3946 111.245C18.9747 111.509 19.4869 111.925 19.9311 112.496C20.3711 113.068 20.7114 113.777 20.9518 114.624ZM5.45239 108.34L18.6953 105.963L19.2629 109.125L6.01998 111.502L5.45239 108.34ZM18.4628 101.745C18.5139 102.386 18.4522 102.965 18.2779 103.479C18.0988 103.99 17.8024 104.407 17.3888 104.73C16.9704 105.049 16.4294 105.235 15.7657 105.287C15.2069 105.332 14.7276 105.271 14.3277 105.105C13.9279 104.939 13.5942 104.693 13.3267 104.368C13.0591 104.042 12.8463 103.659 12.6883 103.219C12.5259 102.779 12.4026 102.306 12.3183 101.798C12.2204 101.231 12.1292 100.774 12.0447 100.43C11.9558 100.085 11.8505 99.8387 11.7288 99.6902C11.6025 99.5377 11.4367 99.4696 11.2315 99.486L11.1987 99.4886C10.8626 99.5153 10.612 99.6517 10.447 99.8976C10.2821 100.144 10.2152 100.463 10.2465 100.856C10.2801 101.28 10.3989 101.613 10.6028 101.856C10.8066 102.099 11.0729 102.242 11.4015 102.287L11.5317 105.248C10.9135 105.21 10.3498 105.028 9.84077 104.704C9.32698 104.376 8.90721 103.904 8.58145 103.288C8.25099 102.669 8.04999 101.909 7.97845 101.01C7.92741 100.368 7.95676 99.7706 8.06651 99.2171C8.17189 98.6639 8.35268 98.175 8.60889 97.7504C8.86073 97.3262 9.18535 96.9884 9.58275 96.7371C9.97981 96.4815 10.4447 96.3325 10.9773 96.2901L17.8144 95.7463L18.054 98.7588L16.6525 98.8703L16.6588 98.9488C17.0135 99.1008 17.3199 99.3071 17.5779 99.5677C17.8355 99.824 18.0382 100.135 18.186 100.501C18.3334 100.863 18.4257 101.277 18.4628 101.745ZM16.2885 100.922C16.2611 100.578 16.1666 100.273 16.005 100.009C15.843 99.7409 15.6332 99.5335 15.3755 99.387C15.1135 99.2409 14.8187 99.1809 14.4913 99.2069L13.5351 99.283C13.5905 99.3708 13.643 99.4787 13.6927 99.6065C13.7421 99.73 13.7903 99.8668 13.8374 100.017C13.8844 100.167 13.9275 100.322 13.9665 100.481C14.0056 100.641 14.0419 100.794 14.0756 100.94C14.1476 101.238 14.2423 101.489 14.3597 101.695C14.4768 101.897 14.6206 102.048 14.7912 102.149C14.957 102.245 15.1491 102.285 15.3674 102.268C15.6992 102.241 15.9431 102.103 16.099 101.854C16.2545 101.6 16.3177 101.289 16.2885 100.922ZM17.7893 94.5335L7.70312 94.2239L7.79884 91.1048L9.63746 91.1613L9.64069 91.0562C8.98093 90.8519 8.49545 90.5369 8.18427 90.111C7.86871 89.6851 7.71939 89.1963 7.73632 88.6447C7.74089 88.4959 7.75653 88.343 7.78326 88.1861C7.8056 88.029 7.83856 87.8832 7.88212 87.7487L10.6729 87.8344C10.6157 87.986 10.5679 88.1861 10.5296 88.4347C10.4914 88.6789 10.4694 88.8973 10.4635 89.0899C10.4518 89.4708 10.5266 89.817 10.6879 90.1287C10.845 90.4359 11.0719 90.6817 11.3686 90.866C11.661 91.0459 12.0086 91.142 12.4114 91.1544L17.8878 91.3224L17.7893 94.5335ZM7.76649 82.2746L5.1729 81.7765L7.3176 70.6086L9.91119 71.1067L9.14177 75.1132L19.7613 77.1525L19.1567 80.301L8.53714 78.2616L7.76649 82.2746ZM22.1456 69.5624C21.805 70.566 21.307 71.359 20.6515 71.9414C19.9933 72.5181 19.2289 72.8762 18.3583 73.0155C17.4851 73.1493 16.559 73.0501 15.5802 72.718C14.5973 72.3844 13.8021 71.8995 13.1948 71.2633C12.5847 70.6215 12.1961 69.8722 12.0289 69.0154C11.8591 68.153 11.9445 67.2199 12.285 66.2163C12.6256 65.2126 13.125 64.4223 13.7833 63.8456C14.4388 63.2633 15.2031 62.9052 16.0764 62.7714C16.947 62.6321 17.8737 62.7292 18.8566 63.0627C19.8354 63.3949 20.6299 63.8818 21.24 64.5236C21.8473 65.1599 22.236 65.9092 22.4058 66.7716C22.5729 67.6284 22.4862 68.5587 22.1456 69.5624ZM19.8563 68.7647C19.9802 68.3997 19.973 68.0527 19.8349 67.7237C19.6968 67.3947 19.4512 67.0963 19.0981 66.8285C18.7464 66.5565 18.3092 66.3319 17.7867 66.1545C17.2558 65.9744 16.768 65.8852 16.3234 65.887C15.8803 65.8846 15.5038 65.9719 15.1939 66.1489C14.8841 66.3258 14.6673 66.5968 14.5434 66.9618C14.4154 67.3392 14.419 67.6966 14.5543 68.0339C14.691 68.367 14.9352 68.6696 15.2869 68.9415C15.64 69.2094 16.082 69.4334 16.6129 69.6135C17.1355 69.7908 17.6183 69.8807 18.0615 69.8831C18.5061 69.8813 18.884 69.7899 19.1953 69.6088C19.5079 69.4235 19.7282 69.1421 19.8563 68.7647ZM30.2468 59.8929L25.4125 57.4424L25.3828 57.501C25.5987 57.7627 25.7714 58.0663 25.9007 58.4117C26.0301 58.7572 26.0838 59.1355 26.062 59.5467C26.0421 59.954 25.9173 60.3843 25.6877 60.8374C25.351 61.5015 24.8732 62.018 24.2542 62.3867C23.6352 62.7555 22.8997 62.9277 22.0478 62.9035C21.1959 62.8792 20.2602 62.6087 19.2405 62.0919C18.1819 61.5553 17.3959 60.9457 16.8825 60.2632C16.3691 59.5807 16.086 58.8848 16.0331 58.1755C15.9822 57.4622 16.1161 56.7911 16.4349 56.1622C16.6745 55.6895 16.9615 55.3267 17.2958 55.0739C17.6263 54.8192 17.9739 54.6467 18.3388 54.5567C18.7036 54.4666 19.0514 54.4342 19.3823 54.4596L19.4269 54.3717L17.8857 53.5905L19.3233 50.7543L31.6993 57.0274L30.2468 59.8929ZM23.96 58.7096C24.1362 58.3619 24.189 58.0155 24.1185 57.6704C24.044 57.3233 23.8607 56.9922 23.5686 56.6773C23.2765 56.3623 22.8883 56.082 22.4039 55.8365C21.9117 55.587 21.4541 55.4385 21.0313 55.3912C20.6105 55.3399 20.241 55.3907 19.9228 55.5437C19.6067 55.6928 19.3605 55.9412 19.1842 56.2889C19.004 56.6444 18.9492 56.9947 19.0198 57.3398C19.0904 57.6849 19.2708 58.012 19.5609 58.3212C19.853 58.6264 20.2413 58.9017 20.7257 59.1473C21.2101 59.3928 21.6647 59.5422 22.0895 59.5954C22.5142 59.6487 22.8876 59.6047 23.2096 59.4635C23.5297 59.3164 23.7798 59.0651 23.96 58.7096ZM29.0401 46.5758L24.3434 43.2843L26.1833 40.6588L34.447 46.4501L32.69 48.9571L31.1513 47.8788L31.091 47.9649C31.4685 48.5022 31.6516 49.0958 31.6401 49.7456C31.6275 50.3893 31.4038 51.0213 30.969 51.6418C30.5744 52.2049 30.0984 52.6094 29.541 52.8553C28.9837 53.1011 28.3907 53.1802 27.7621 53.0927C27.13 53.0027 26.5006 52.7408 25.874 52.307L20.607 48.6158L22.4507 45.985L27.2012 49.3142C27.6521 49.6248 28.0883 49.7541 28.5099 49.7019C28.9315 49.6497 29.2831 49.4228 29.5646 49.0211C29.7481 48.7593 29.8554 48.4841 29.8864 48.1957C29.9163 47.9011 29.8628 47.6149 29.7259 47.3372C29.5879 47.0533 29.3593 46.7995 29.0401 46.5758ZM38.4926 42.2682C37.7738 43.0411 37.0011 43.5665 36.1744 43.8444C35.3476 44.1162 34.5101 44.1388 33.6621 43.9124C32.8138 43.6798 31.9968 43.1981 31.211 42.4674C30.4477 41.7575 29.9208 40.9864 29.6303 40.154C29.3365 39.3187 29.2859 38.4791 29.4784 37.6354C29.6677 36.7887 30.1083 35.9933 30.8003 35.2492C31.2894 34.7233 31.8186 34.3182 32.3878 34.0342C32.957 33.7501 33.5496 33.5984 34.1656 33.5792C34.7816 33.5599 35.4073 33.6813 36.0429 33.9433C36.6751 34.2024 37.2944 34.6138 37.9005 35.1775L38.4875 35.7233L32.5149 42.1458L31.1486 40.8752L35.0856 36.6417C34.8324 36.4122 34.5544 36.2643 34.2513 36.1978C33.9483 36.1313 33.6483 36.1484 33.3514 36.249C33.0542 36.3435 32.7848 36.5206 32.5433 36.7804C32.2987 37.0434 32.1388 37.3343 32.0636 37.6531C31.9852 37.969 31.9904 38.2818 32.0791 38.5916C32.1646 38.8984 32.331 39.1728 32.5784 39.4148L33.9688 40.7078C34.2703 40.9881 34.59 41.1749 34.9281 41.2679C35.263 41.3581 35.5943 41.3522 35.9222 41.2505C36.2501 41.1487 36.5543 40.9471 36.8346 40.6456C37.0285 40.4371 37.1756 40.221 37.2759 39.9974C37.3763 39.7737 37.427 39.5487 37.4281 39.3225C37.4292 39.0962 37.3763 38.8765 37.2694 38.6635L39.3407 36.5616C39.7415 37.1018 39.9798 37.6912 40.0556 38.3299C40.1313 38.9625 40.0404 39.6166 39.7829 40.2922C39.5222 40.9648 39.0921 41.6235 38.4926 42.2682ZM47.1322 38.7902L38.8794 27.6364L41.4355 25.7451L42.4632 27.1341L42.5424 27.0754C42.4657 26.7508 42.4395 26.4025 42.4638 26.0303C42.4916 25.6556 42.6035 25.2841 42.7995 24.9157C42.9964 24.5412 43.3079 24.1963 43.7339 23.8811C44.2972 23.4643 44.933 23.2227 45.6412 23.1564C46.3529 23.0874 47.0881 23.249 47.8468 23.6411C48.6055 24.0332 49.3378 24.7063 50.0437 25.6604C50.7236 26.5793 51.1467 27.4567 51.313 28.2926C51.4828 29.1259 51.4358 29.8798 51.1722 30.5543C50.912 31.2262 50.4827 31.7836 49.8842 32.2265C49.4757 32.5287 49.0724 32.7236 48.6742 32.8112C48.2759 32.8989 47.8939 32.9091 47.5282 32.8419C47.166 32.7721 46.8378 32.6526 46.5437 32.4834L46.4909 32.5224L49.7147 36.8794L47.1322 38.7902ZM44.4101 29.8206C44.7331 30.2572 45.0726 30.5944 45.4284 30.8324C45.7878 31.0677 46.1448 31.1931 46.4995 31.2085C46.855 31.2179 47.1895 31.1066 47.5029 30.8747C47.8197 30.6403 48.0239 30.353 48.1155 30.0128C48.2045 29.6692 48.1854 29.2937 48.0584 28.8864C47.935 28.4765 47.7117 28.0533 47.3887 27.6167C47.0657 27.1802 46.7275 26.8447 46.3743 26.6102C46.0246 26.3732 45.6737 26.2487 45.3216 26.2368C44.9731 26.2223 44.6386 26.3335 44.3182 26.5706C44.0013 26.805 43.7958 27.0906 43.7017 27.4272C43.6075 27.7639 43.6191 28.1367 43.7364 28.5456C43.8573 28.952 44.0819 29.377 44.4101 29.8206ZM56.2655 28.1103C55.7007 28.4194 55.1479 28.5998 54.6069 28.6513C54.0676 28.6969 53.566 28.597 53.1021 28.3517C52.64 28.1004 52.2491 27.6828 51.9294 27.0988C51.6602 26.6071 51.5195 26.1449 51.5073 25.7122C51.495 25.2794 51.5828 24.8744 51.7707 24.4969C51.9585 24.1195 52.2208 23.7686 52.5576 23.4444C52.8923 23.1164 53.2738 22.8101 53.7023 22.5256C54.1803 22.204 54.5593 21.9341 54.8393 21.7159C55.1172 21.4939 55.299 21.2969 55.3847 21.1252C55.4722 20.9475 55.4665 20.7684 55.3676 20.5878L55.3518 20.559C55.1899 20.2632 54.9629 20.0903 54.671 20.0405C54.3791 19.9906 54.0602 20.0603 53.7145 20.2496C53.3418 20.4536 53.0863 20.6983 52.948 20.9838C52.8097 21.2692 52.7876 21.5709 52.8818 21.8888L50.2324 23.2195C50.0148 22.6396 49.9497 22.0511 50.0372 21.4539C50.1265 20.8508 50.3853 20.2747 50.8137 19.7256C51.2438 19.1706 51.8545 18.6764 52.6459 18.2431C53.2106 17.934 53.768 17.7162 54.318 17.5898C54.8659 17.4597 55.3859 17.4246 55.8782 17.4846C56.3683 17.5409 56.8093 17.6989 57.2012 17.9587C57.597 18.2163 57.9231 18.5795 58.1797 19.0482L61.4734 25.0643L58.8227 26.5155L58.1475 25.2823L58.0784 25.3202C58.0849 25.7061 58.022 26.0701 57.8897 26.4121C57.7613 26.7521 57.5603 27.0643 57.2867 27.3489C57.0169 27.6314 56.6765 27.8852 56.2655 28.1103ZM56.126 25.7899C56.4295 25.6237 56.6686 25.4129 56.8434 25.1575C57.0219 24.9 57.1253 24.6237 57.1535 24.3286C57.1796 24.0297 57.1138 23.7362 56.956 23.4481L56.4954 22.6067C56.4379 22.6932 56.361 22.7852 56.2646 22.8829C56.1722 22.9785 56.0671 23.0784 55.9495 23.1828C55.8318 23.2871 55.7083 23.3897 55.5787 23.4906C55.4492 23.5915 55.3244 23.6872 55.2043 23.778C54.9624 23.9653 54.7715 24.1547 54.6316 24.3462C54.4956 24.5355 54.4165 24.7286 54.3945 24.9254C54.3741 25.1163 54.4166 25.3077 54.5217 25.4998C54.6816 25.7918 54.9073 25.9578 55.1989 25.9979C55.4943 26.0359 55.8033 25.9666 56.126 25.7899ZM62.5725 24.5434L58.7218 15.2161L61.6062 14.0253L62.3082 15.7256L62.4053 15.6855C62.3213 15 62.4098 14.428 62.6707 13.9697C62.9299 13.5073 63.3146 13.1708 63.8247 12.9602C63.9623 12.9034 64.1082 12.855 64.2623 12.8151C64.4147 12.7711 64.5612 12.7414 64.7017 12.726L65.7672 15.3068C65.6054 15.3167 65.4034 15.3552 65.1609 15.4221C64.9225 15.4874 64.7142 15.5567 64.5361 15.6303C64.1839 15.7757 63.8987 15.9858 63.6805 16.2607C63.4647 16.5299 63.3335 16.8375 63.2868 17.1837C63.2426 17.5242 63.2974 17.8806 63.4511 18.2531L65.5419 23.3175L62.5725 24.5434ZM71.5195 21.4576C70.9005 21.6348 70.3215 21.6888 69.7824 21.6199C69.2464 21.5455 68.7791 21.3375 68.3807 20.9959C67.9854 20.649 67.6961 20.1555 67.513 19.5154C67.3587 18.9764 67.3234 18.4946 67.4068 18.0698C67.4903 17.6451 67.6652 17.2693 67.9316 16.9425C68.198 16.6157 68.5311 16.3313 68.9311 16.0893C69.3299 15.8431 69.7696 15.6285 70.2502 15.4454C70.7873 15.2371 71.2165 15.0573 71.5377 14.9062C71.8577 14.7508 72.0784 14.5989 72.1999 14.4502C72.3244 14.2962 72.3583 14.1202 72.3016 13.9223L72.2926 13.8907C72.1998 13.5665 72.0166 13.3478 71.7428 13.2349C71.469 13.1219 71.1426 13.1196 70.7637 13.228C70.3552 13.3449 70.0521 13.5273 69.8543 13.7752C69.6564 14.0232 69.5684 14.3126 69.5902 14.6434L66.7127 15.3575C66.6282 14.7439 66.6945 14.1555 66.9115 13.5923C67.1314 13.0237 67.5108 12.5188 68.0497 12.0776C68.5916 11.631 69.2962 11.2836 70.1636 11.0354C70.7826 10.8583 71.3743 10.7687 71.9386 10.7667C72.5017 10.7605 73.0167 10.8409 73.4836 11.0079C73.9493 11.1708 74.3446 11.4221 74.6696 11.7619C74.9988 12.1005 75.2369 12.5266 75.3839 13.0403L77.2707 19.6344L74.3653 20.4657L73.9785 19.114L73.9027 19.1357C73.8241 19.5136 73.6825 19.8547 73.4781 20.1592C73.2779 20.4625 73.013 20.7228 72.6834 20.9401C72.358 21.1562 71.97 21.3287 71.5195 21.4576ZM71.8949 19.1636C72.2275 19.0684 72.5072 18.9155 72.734 18.7048C72.9649 18.493 73.1266 18.2463 73.2192 17.9647C73.3105 17.6789 73.311 17.3781 73.2206 17.0623L72.9568 16.1401C72.8816 16.2117 72.7863 16.2846 72.6708 16.3586C72.5595 16.4315 72.435 16.5058 72.2973 16.5817C72.1595 16.6575 72.0164 16.7304 71.8678 16.8002C71.7192 16.87 71.5764 16.936 71.4392 16.998C71.162 17.1274 70.934 17.2701 70.7554 17.426C70.581 17.5807 70.4613 17.7516 70.3964 17.9387C70.3345 18.1204 70.3337 18.3165 70.394 18.5271C70.4855 18.8471 70.6691 19.0588 70.9447 19.1622C71.2244 19.2643 71.5412 19.2648 71.8949 19.1636ZM82.0475 18.7172L80.8293 8.70007L83.927 8.32334L84.1491 10.1494L84.2534 10.1367C84.3557 9.45363 84.5937 8.92612 84.9676 8.55416C85.341 8.17785 85.8016 7.95639 86.3494 7.88976C86.4972 7.87179 86.6507 7.86415 86.8099 7.86685C86.9685 7.86521 87.1176 7.87576 87.2571 7.8985L87.5942 10.6702C87.4357 10.6365 87.2307 10.6195 86.9792 10.6192C86.732 10.6184 86.5128 10.6296 86.3215 10.6529C85.9432 10.6989 85.6122 10.8252 85.3285 11.0317C85.0486 11.2334 84.8399 11.4948 84.7025 11.816C84.5689 12.1323 84.5264 12.4904 84.5751 12.8904L85.2365 18.3293L82.0475 18.7172ZM93.2673 18.1179C92.2119 18.1335 91.2979 17.939 90.5254 17.5343C89.7572 17.1251 89.1615 16.5361 88.7384 15.767C88.3196 14.9935 88.1022 14.0703 88.0863 12.9974C88.0709 11.9552 88.2633 11.0412 88.6634 10.2556C89.0634 9.46566 89.6347 8.84835 90.3771 8.40372C91.1195 7.95472 91.9987 7.72269 93.0146 7.70766C93.7328 7.69703 94.3914 7.79898 94.9903 8.01351C95.5891 8.22803 96.1086 8.55105 96.5486 8.98256C96.9887 9.41407 97.3339 9.94992 97.5843 10.5901C97.8346 11.2259 97.9659 11.9577 97.9781 12.7853L97.99 13.5867L89.2205 13.7165L89.1929 11.851L94.9735 11.7654C94.9641 11.4239 94.8786 11.1207 94.717 10.8559C94.5553 10.5911 94.3355 10.3863 94.0574 10.2415C93.7836 10.0923 93.4694 10.0203 93.1146 10.0255C92.7555 10.0308 92.4349 10.1166 92.1526 10.2828C91.8703 10.4447 91.648 10.6648 91.4856 10.9432C91.3233 11.2172 91.2402 11.5272 91.2366 11.8733L91.2647 13.7717C91.2708 14.1833 91.3572 14.5434 91.5238 14.852C91.6904 15.1561 91.9238 15.3914 92.2241 15.5578C92.5244 15.7241 92.8804 15.8043 93.2921 15.7982C93.5767 15.794 93.8345 15.7507 94.0654 15.6685C94.2964 15.5862 94.4939 15.4672 94.6581 15.3115C94.8222 15.1557 94.9442 14.9656 95.0241 14.741L97.9748 14.7828C97.862 15.4458 97.6012 16.0257 97.1924 16.5223C96.788 17.0145 96.2527 17.4013 95.5867 17.6828C94.9206 17.9598 94.1475 18.1049 93.2673 18.1179ZM109.418 9.02729L104.818 18.6527L101.163 18.2294L98.8919 7.80781L102.253 8.19717L103.3 15.3156L103.404 15.3277L106.057 8.63793L109.418 9.02729ZM112.781 20.465C111.758 20.2069 110.925 19.7824 110.284 19.1915C109.648 18.5975 109.225 17.8743 109.015 17.0219C108.811 16.1664 108.84 15.2184 109.102 14.178C109.357 13.1672 109.78 12.3342 110.37 11.679C110.96 11.0195 111.672 10.5711 112.504 10.3338C113.338 10.0922 114.247 10.0957 115.232 10.3442C115.929 10.5198 116.538 10.7888 117.061 11.151C117.584 11.5132 118.002 11.9597 118.316 12.4904C118.629 13.0211 118.824 13.6281 118.9 14.3112C118.977 14.9902 118.914 15.731 118.712 16.5336L118.516 17.3108L110.012 15.1661L110.468 13.357L116.074 14.7707C116.153 14.4384 116.149 14.1234 116.061 13.8258C115.974 13.5282 115.815 13.2735 115.583 13.0616C115.358 12.8466 115.073 12.6957 114.729 12.6089C114.38 12.5211 114.049 12.5209 113.733 12.6085C113.418 12.6917 113.147 12.8468 112.918 13.0736C112.69 13.2962 112.529 13.5742 112.436 13.9076L111.972 15.7485C111.871 16.1477 111.862 16.5179 111.943 16.8591C112.025 17.196 112.189 17.4836 112.436 17.7221C112.683 17.9605 113.007 18.1301 113.406 18.2308C113.682 18.3004 113.942 18.3254 114.186 18.3057C114.431 18.286 114.652 18.2222 114.851 18.1142C115.05 18.0063 115.217 17.8542 115.352 17.658L118.192 18.4621C117.911 19.0734 117.509 19.566 116.986 19.9399C116.468 20.3106 115.851 20.5456 115.134 20.6451C114.419 20.7403 113.635 20.6802 112.781 20.465ZM125.973 10.1843L121.41 22.8416L118.388 21.7521L122.95 9.09488L125.973 10.1843ZM125.176 24.7495C124.595 24.4725 124.125 24.1299 123.766 23.7214C123.414 23.3108 123.201 22.8457 123.129 22.3259C123.062 21.8042 123.172 21.2428 123.458 20.6418C123.699 20.1357 123.991 19.751 124.335 19.4878C124.679 19.2247 125.059 19.0587 125.475 18.9901C125.891 18.9214 126.329 18.9288 126.789 19.0121C127.25 19.0914 127.722 19.2215 128.204 19.4024C128.744 19.6017 129.185 19.751 129.526 19.8503C129.868 19.9457 130.134 19.9778 130.324 19.9468C130.519 19.9137 130.661 19.8042 130.75 19.6184L130.764 19.5887C130.909 19.2843 130.916 18.9991 130.786 18.7332C130.655 18.4673 130.412 18.2496 130.056 18.08C129.673 17.8973 129.325 17.8334 129.012 17.8883C128.7 17.9433 128.442 18.102 128.24 18.3644L125.61 16.9952C125.953 16.4793 126.392 16.0821 126.927 15.8035C127.469 15.5228 128.087 15.3955 128.783 15.4214C129.485 15.4452 130.243 15.6512 131.057 16.0392C131.639 16.3161 132.142 16.6406 132.566 17.0126C132.992 17.3806 133.325 17.7817 133.564 18.216C133.806 18.6463 133.936 19.0963 133.954 19.5662C133.977 20.0378 133.874 20.5149 133.644 20.9973L130.694 27.1891L127.966 25.8894L128.57 24.6202L128.499 24.5862C128.19 24.8174 127.858 24.9795 127.503 25.0724C127.153 25.1673 126.782 25.1871 126.391 25.1318C126.004 25.0785 125.599 24.951 125.176 24.7495ZM126.976 23.2782C127.288 23.427 127.599 23.4975 127.908 23.4897C128.222 23.4837 128.506 23.4058 128.762 23.256C129.019 23.1022 129.219 22.877 129.36 22.5805L129.773 21.7145C129.669 21.7185 129.549 21.71 129.414 21.6891C129.282 21.67 129.14 21.6433 128.986 21.609C128.833 21.5747 128.677 21.5346 128.52 21.4886C128.362 21.4427 128.211 21.3975 128.067 21.3533C127.774 21.2668 127.509 21.2228 127.271 21.2215C127.038 21.222 126.836 21.2709 126.663 21.3682C126.496 21.4635 126.366 21.61 126.272 21.8077C126.129 22.1082 126.126 22.3884 126.264 22.6482C126.406 22.91 126.643 23.12 126.976 23.2782ZM131.752 27.7721L137.072 19.1978L139.724 20.8431L138.754 22.4061L138.843 22.4615C139.35 21.9928 139.866 21.7305 140.391 21.6745C140.917 21.6147 141.415 21.7304 141.884 22.0213C142.011 22.0998 142.135 22.19 142.258 22.2917C142.382 22.3897 142.492 22.4913 142.587 22.5963L141.114 24.9688C141.012 24.8433 140.863 24.7017 140.667 24.5441C140.474 24.3887 140.296 24.2602 140.133 24.1586C139.809 23.9577 139.472 23.849 139.121 23.8325C138.777 23.8146 138.45 23.8878 138.142 24.0522C137.84 24.2152 137.583 24.4679 137.37 24.8103L134.481 29.4659L131.752 27.7721Z" fill="currentColor" />
</svg>
