<svg width="126" height="87" viewBox="0 0 126 87" fill="none" xmlns="http://www.w3.org/2000/svg">
<path d="M0.5 86.875V78.125H10.9167V0H115.083V78.125H125.5V86.875H0.5ZM51.8941 83.875H72.6674V80.375H51.8341L51.8941 83.875ZM17 75.875L109 75.875V5.875H17V75.875Z" fill="#00183E"/>
<path d="M38.4918 56.8136L45.833 42.1313C46.1876 41.422 46.693 40.8546 47.3491 40.429C48.0052 40.0035 48.7411 39.7907 49.5567 39.7907C50.4079 39.7907 51.1881 40.0123 51.8974 40.4556C52.6067 40.8989 53.1209 41.5284 53.4401 42.3441L54.8764 45.8551C54.9473 46.0679 55.1069 46.1654 55.3552 46.1477C55.6034 46.13 55.763 46.0147 55.834 45.8019L60.4089 30.5344C60.9054 28.8321 61.8541 27.4667 63.2549 26.4383C64.6558 25.4098 66.2428 24.8956 68.016 24.8956C69.7538 24.8956 71.3054 25.4009 72.6707 26.4117C74.0361 27.4224 74.9848 28.7435 75.5168 30.3748L77.4319 35.9073C76.8999 36.0846 76.3945 36.3151 75.9157 36.5989C75.437 36.8826 74.9848 37.2372 74.5592 37.6628L73.8145 38.4608L71.4738 31.7048C71.1901 30.8891 70.7468 30.2596 70.1439 29.8163C69.541 29.373 68.8317 29.1513 68.016 29.1513C67.2004 29.1513 66.4822 29.3818 65.8616 29.8429C65.2409 30.3039 64.7888 30.9423 64.5051 31.758L59.9301 47.0254C59.6109 48.0184 59.0346 48.8341 58.2012 49.4725C57.3678 50.1108 56.4191 50.43 55.3552 50.43C54.3977 50.43 53.511 50.1729 52.6954 49.6587C51.8797 49.1444 51.2945 48.4263 50.9399 47.5042L49.5035 43.9932L43.2263 56.8136H38.4918ZM65.835 58.9415V52.3983L77.5914 40.695C77.9106 40.3758 78.2653 40.1453 78.6554 40.0035C79.0455 39.8616 79.4356 39.7907 79.8257 39.7907C80.2513 39.7907 80.6591 39.8705 81.0492 40.0301C81.4393 40.1896 81.794 40.429 82.1131 40.7482L84.0814 42.7165C84.3652 43.0357 84.5868 43.3903 84.7464 43.7804C84.906 44.1705 84.9858 44.5606 84.9858 44.9508C84.9858 45.3409 84.9149 45.7398 84.773 46.1477C84.6311 46.5555 84.4006 46.919 84.0814 47.2382L72.3782 58.9415H65.835ZM69.0268 55.7497H71.0482L77.485 49.2597L76.5275 48.249L75.5168 47.2914L69.0268 53.7282V55.7497ZM76.5275 48.249L75.5168 47.2914L77.485 49.2597L76.5275 48.249ZM48.812 35.5349C47.0388 35.5349 45.5315 34.9054 44.2903 33.6464C43.049 32.3874 42.4284 30.8891 42.4284 29.1513C42.4284 27.3781 43.049 25.8708 44.2903 24.6296C45.5315 23.3883 47.0388 22.7677 48.812 22.7677C50.5852 22.7677 52.0925 23.3883 53.3337 24.6296C54.575 25.8708 55.1956 27.3781 55.1956 29.1513C55.1956 30.8891 54.575 32.3874 53.3337 33.6464C52.0925 34.9054 50.5852 35.5349 48.812 35.5349ZM48.812 31.2792C49.4149 31.2792 49.9203 31.0753 50.3281 30.6674C50.7359 30.2596 50.9399 29.7542 50.9399 29.1513C50.9399 28.5484 50.7359 28.043 50.3281 27.6352C49.9203 27.2274 49.4149 27.0234 48.812 27.0234C48.2091 27.0234 47.7037 27.2274 47.2959 27.6352C46.888 28.043 46.6841 28.5484 46.6841 29.1513C46.6841 29.7542 46.888 30.2596 47.2959 30.6674C47.7037 31.0753 48.2091 31.2792 48.812 31.2792Z" fill="#00183E"/>
</svg>
