<svg width="90" height="64" viewBox="0 0 90 64" fill="none" xmlns="http://www.w3.org/2000/svg">
<path d="M0 63.5V57.1547H7.49999V0.5H82.5V57.1547H90V63.5H0ZM37.0038 61.3245H51.9606V58.7863H36.9606L37.0038 61.3245ZM11.88 55.523L78.12 55.523V4.76043H11.88V55.523Z" fill="white"/>
<path d="M43.6125 38.723L46.605 35.7354L43.6125 32.7478L42.51 33.8583L43.6388 34.9951C43.1488 35.0128 42.6719 34.9335 42.2081 34.7572C41.7444 34.5809 41.3288 34.3077 40.9613 33.9376C40.6113 33.5851 40.3444 33.1797 40.1606 32.7214C39.9769 32.2631 39.885 31.8049 39.885 31.3466C39.885 31.0469 39.9244 30.7473 40.0031 30.4477C40.0819 30.148 40.1913 29.8572 40.3313 29.5752L39.1763 28.4119C38.8788 28.8525 38.66 29.3196 38.52 29.8131C38.38 30.3067 38.31 30.809 38.31 31.3201C38.31 31.9899 38.4413 32.6509 38.7038 33.3031C38.9663 33.9552 39.3513 34.5369 39.8588 35.048C40.3663 35.5592 40.935 35.9425 41.565 36.1981C42.195 36.4537 42.8425 36.5903 43.5075 36.6079L42.51 37.6126L43.6125 38.723ZM47.9438 34.2284C48.2413 33.7878 48.46 33.3207 48.6 32.8272C48.74 32.3336 48.81 31.8313 48.81 31.3201C48.81 30.6504 48.6831 29.985 48.4294 29.324C48.1756 28.663 47.795 28.077 47.2875 27.5658C46.78 27.0547 46.2069 26.6757 45.5681 26.429C44.9294 26.1822 44.2775 26.0588 43.6125 26.0588L44.61 25.0277L43.5075 23.9173L40.515 26.9049L43.5075 29.8924L44.61 28.782L43.455 27.6187C43.9275 27.6187 44.4088 27.7112 44.8988 27.8963C45.3888 28.0814 45.8088 28.3502 46.1588 28.7027C46.5088 29.0552 46.7756 29.4606 46.9594 29.9189C47.1431 30.3772 47.235 30.8354 47.235 31.2937C47.235 31.5933 47.1956 31.893 47.1169 32.1926C47.0381 32.4923 46.9288 32.7831 46.7888 33.0651L47.9438 34.2284ZM43.56 41.8957C42.1075 41.8957 40.7425 41.6181 39.465 41.0629C38.1875 40.5076 37.0763 39.7541 36.1313 38.8023C35.1863 37.8505 34.4381 36.7313 33.8869 35.4446C33.3356 34.1579 33.06 32.7831 33.06 31.3201C33.06 29.8572 33.3356 28.4824 33.8869 27.1957C34.4381 25.909 35.1863 24.7897 36.1313 23.8379C37.0763 22.8862 38.1875 22.1326 39.465 21.5774C40.7425 21.0222 42.1075 20.7446 43.56 20.7446C45.0125 20.7446 46.3775 21.0222 47.655 21.5774C48.9325 22.1326 50.0438 22.8862 50.9888 23.8379C51.9338 24.7897 52.6819 25.909 53.2331 27.1957C53.7844 28.4824 54.06 29.8572 54.06 31.3201C54.06 32.7831 53.7844 34.1579 53.2331 35.4446C52.6819 36.7313 51.9338 37.8505 50.9888 38.8023C50.0438 39.7541 48.9325 40.5076 47.655 41.0629C46.3775 41.6181 45.0125 41.8957 43.56 41.8957ZM43.56 39.7806C45.905 39.7806 47.8913 38.961 49.5188 37.3218C51.1463 35.6826 51.96 33.682 51.96 31.3201C51.96 28.9583 51.1463 26.9577 49.5188 25.3185C47.8913 23.6793 45.905 22.8597 43.56 22.8597C41.215 22.8597 39.2288 23.6793 37.6013 25.3185C35.9738 26.9577 35.16 28.9583 35.16 31.3201C35.16 33.682 35.9738 35.6826 37.6013 37.3218C39.2288 38.961 41.215 39.7806 43.56 39.7806Z" fill="white"/>
</svg>
