<svg width="126" height="87" viewBox="0 0 126 87" fill="none" xmlns="http://www.w3.org/2000/svg">
<path d="M0.5 86.875V78.125H10.9167V0H115.083V78.125H125.5V86.875H0.5ZM51.8941 83.875H72.6674V80.375H51.8341L51.8941 83.875ZM17 75.875L109 75.875V5.875H17V75.875Z" fill="#00183E"/>
<path d="M61.0729 52.7083L65.2292 48.5885L61.0729 44.4688L59.5417 46L61.1094 47.5677C60.4288 47.592 59.7665 47.4826 59.1224 47.2396C58.4783 46.9965 57.901 46.6198 57.3906 46.1094C56.9045 45.6233 56.5339 45.0642 56.2786 44.4323C56.0234 43.8003 55.8958 43.1684 55.8958 42.5365C55.8958 42.1233 55.9505 41.7101 56.0599 41.2969C56.1693 40.8837 56.3212 40.4826 56.5156 40.0938L54.9115 38.4896C54.4983 39.0972 54.1944 39.7413 54 40.4219C53.8056 41.1024 53.7083 41.7951 53.7083 42.5C53.7083 43.4236 53.8906 44.3351 54.2552 45.2344C54.6198 46.1337 55.1545 46.9358 55.8594 47.6406C56.5642 48.3455 57.3542 48.8741 58.2292 49.2266C59.1042 49.579 60.0035 49.7674 60.9271 49.7917L59.5417 51.1771L61.0729 52.7083ZM67.0885 46.5104C67.5017 45.9028 67.8056 45.2587 68 44.5781C68.1944 43.8976 68.2917 43.2049 68.2917 42.5C68.2917 41.5764 68.1154 40.6589 67.763 39.7474C67.4106 38.8359 66.882 38.0278 66.1771 37.3229C65.4722 36.6181 64.6762 36.0955 63.7891 35.7552C62.9019 35.4149 61.9965 35.2448 61.0729 35.2448L62.4583 33.8229L60.9271 32.2917L56.7708 36.4115L60.9271 40.5312L62.4583 39L60.8542 37.3958C61.5104 37.3958 62.1788 37.5234 62.8594 37.7786C63.5399 38.0339 64.1233 38.4045 64.6094 38.8906C65.0955 39.3767 65.4661 39.9358 65.7214 40.5677C65.9766 41.1996 66.1042 41.8316 66.1042 42.4635C66.1042 42.8767 66.0495 43.2899 65.9401 43.7031C65.8307 44.1163 65.6788 44.5174 65.4844 44.9062L67.0885 46.5104ZM61 57.0833C58.9826 57.0833 57.0868 56.7005 55.3125 55.9349C53.5382 55.1693 51.9948 54.1302 50.6823 52.8177C49.3698 51.5052 48.3307 49.9618 47.5651 48.1875C46.7995 46.4132 46.4167 44.5174 46.4167 42.5C46.4167 40.4826 46.7995 38.5868 47.5651 36.8125C48.3307 35.0382 49.3698 33.4948 50.6823 32.1823C51.9948 30.8698 53.5382 29.8307 55.3125 29.0651C57.0868 28.2995 58.9826 27.9167 61 27.9167C63.0174 27.9167 64.9132 28.2995 66.6875 29.0651C68.4618 29.8307 70.0052 30.8698 71.3177 32.1823C72.6302 33.4948 73.6693 35.0382 74.4349 36.8125C75.2005 38.5868 75.5833 40.4826 75.5833 42.5C75.5833 44.5174 75.2005 46.4132 74.4349 48.1875C73.6693 49.9618 72.6302 51.5052 71.3177 52.8177C70.0052 54.1302 68.4618 55.1693 66.6875 55.9349C64.9132 56.7005 63.0174 57.0833 61 57.0833ZM61 54.1667C64.2569 54.1667 67.0156 53.0365 69.276 50.776C71.5365 48.5156 72.6667 45.7569 72.6667 42.5C72.6667 39.2431 71.5365 36.4844 69.276 34.224C67.0156 31.9635 64.2569 30.8333 61 30.8333C57.7431 30.8333 54.9844 31.9635 52.724 34.224C50.4635 36.4844 49.3333 39.2431 49.3333 42.5C49.3333 45.7569 50.4635 48.5156 52.724 50.776C54.9844 53.0365 57.7431 54.1667 61 54.1667Z" fill="#00183E"/>
</svg>
