<svg width="41" height="60" viewBox="0 0 41 60" fill="none" xmlns="http://www.w3.org/2000/svg">
<g opacity="0.75">
<path d="M10.8333 59.5C16.2641 59.5 20.6667 55.0974 20.6667 49.6666V39.8333H10.8333C5.40253 39.8333 1 44.2358 1 49.6666C1 55.0974 5.40253 59.5 10.8333 59.5Z" fill="white" stroke="#00183E" stroke-opacity="0.5"/>
<path d="M1 30C1 24.5692 5.40253 20.1667 10.8333 20.1667H20.6667V39.8334H10.8333C5.40253 39.8334 1 35.4308 1 30Z" fill="white" stroke="#00183E" stroke-opacity="0.5"/>
<path d="M1 10.3333C1 4.90253 5.40253 0.5 10.8333 0.5H20.6667V20.1667H10.8333C5.40253 20.1667 1 15.7641 1 10.3333Z" fill="white" stroke="#00183E" stroke-opacity="0.5"/>
<path d="M20.6667 0.5H30.5C35.9308 0.5 40.3333 4.90253 40.3333 10.3333C40.3333 15.7641 35.9308 20.1667 30.5 20.1667H20.6667V0.5Z" fill="white" stroke="#00183E" stroke-opacity="0.5"/>
<path d="M40.3333 30C40.3333 35.4308 35.9308 39.8334 30.5 39.8334C25.0692 39.8334 20.6667 35.4308 20.6667 30C20.6667 24.5692 25.0692 20.1667 30.5 20.1667C35.9308 20.1667 40.3333 24.5692 40.3333 30Z" fill="white" stroke="#00183E" stroke-opacity="0.5"/>
</g>
</svg>
