<svg width="21" height="21" viewBox="0 0 21 21" fill="none" xmlns="http://www.w3.org/2000/svg">
<g opacity="0.8">
<path fill-rule="evenodd" clip-rule="evenodd" d="M7.30006 0.428711H13.7C15.6873 0.428711 17.3 2.04142 17.3 4.02874C17.3 5.4214 16.508 6.63005 15.3502 7.22868C16.508 7.82734 17.3 9.03603 17.3 10.4287C17.3 12.416 15.6873 14.0287 13.7 14.0287C12.5695 14.0287 11.5603 13.5069 10.9001 12.6911V16.8287C10.9001 18.816 9.28739 20.4287 7.30006 20.4287C5.31274 20.4287 3.70001 18.816 3.70001 16.8287C3.70001 15.436 4.492 14.2273 5.64989 13.6287C4.492 13.03 3.70001 11.8213 3.70001 10.4287C3.70001 9.03603 4.49199 7.82734 5.64987 7.22868C4.492 6.63005 3.70001 5.4214 3.70001 4.02874C3.70001 2.04142 5.31274 0.428711 7.30006 0.428711ZM4.50001 4.02874C4.50001 2.48325 5.75456 1.22871 7.30006 1.22871H10.0999V6.82866H7.30006L7.29138 6.82867C5.74985 6.82399 4.50001 5.57131 4.50001 4.02874ZM10.1001 10.3906C10.1 10.4033 10.0999 10.416 10.0999 10.4287C10.0999 10.4414 10.1 10.4541 10.1001 10.4668V13.2286H7.30004C5.75456 13.2287 4.50001 11.9742 4.50001 10.4287C4.50001 8.88607 5.7499 7.63332 7.29146 7.62867L7.30006 7.62868H10.0999L10.1001 10.3906ZM10.9001 10.4622V10.3951C10.9181 8.86891 12.1594 7.63483 13.6885 7.62868H13.7C13.7028 7.62868 13.7057 7.62868 13.7086 7.62867C15.2501 7.63332 16.5 8.88607 16.5 10.4287C16.5 11.9742 15.2455 13.2287 13.7 13.2287C12.1657 13.2287 10.9181 11.9923 10.9001 10.4622ZM11.4377 7.62868C11.2402 7.78849 11.0599 7.96876 10.9001 8.16626V7.62868H11.4377ZM13.7086 6.82867C13.7057 6.82866 13.7029 6.82866 13.7 6.82866C13.6956 6.82866 13.6912 6.82867 13.6868 6.82868H10.9001V1.22871H13.7C15.2455 1.22871 16.5 2.48325 16.5 4.02874C16.5 5.57131 15.2502 6.82399 13.7086 6.82867ZM7.30006 14.0287C5.75456 14.0287 4.50001 15.2832 4.50001 16.8287C4.50001 18.3742 5.75456 19.6287 7.30006 19.6287C8.84556 19.6287 10.1001 18.3742 10.1001 16.8287V14.0287H7.30006Z" fill="white"/>
</g>
</svg>
