<svg width="22" height="21" viewBox="0 0 22 21" fill="none" xmlns="http://www.w3.org/2000/svg">
<g opacity="0.8" clip-path="url(#clip0_22_286)">
<path d="M11 2.22949C13.8055 2.22949 14.1377 2.24121 15.241 2.28809C16.2664 2.33105 16.8201 2.49512 17.1893 2.63184C17.6773 2.81152 18.0301 3.03027 18.3951 3.37793C18.7643 3.72949 18.9898 4.06152 19.1785 4.52637C19.3221 4.87793 19.4943 5.40918 19.5395 6.38184C19.5887 7.43652 19.601 7.75293 19.601 10.4209C19.601 13.0928 19.5887 13.4092 19.5395 14.46C19.4943 15.4365 19.3221 15.9639 19.1785 16.3154C18.9898 16.7803 18.7602 17.1162 18.3951 17.4639C18.026 17.8154 17.6773 18.0303 17.1893 18.21C16.8201 18.3467 16.2623 18.5107 15.241 18.5537C14.1336 18.6006 13.8014 18.6123 11 18.6123C8.19453 18.6123 7.86231 18.6006 6.75899 18.5537C5.73359 18.5107 5.17988 18.3467 4.81074 18.21C4.32266 18.0303 3.96992 17.8115 3.60488 17.4639C3.23574 17.1123 3.01016 16.7803 2.82148 16.3154C2.67793 15.9639 2.50566 15.4326 2.46055 14.46C2.41133 13.4053 2.39902 13.0889 2.39902 10.4209C2.39902 7.74902 2.41133 7.43262 2.46055 6.38184C2.50566 5.40527 2.67793 4.87793 2.82148 4.52637C3.01016 4.06152 3.23984 3.72559 3.60488 3.37793C3.97402 3.02637 4.32266 2.81152 4.81074 2.63184C5.17988 2.49512 5.7377 2.33105 6.75899 2.28809C7.86231 2.24121 8.19453 2.22949 11 2.22949ZM11 0.428711C8.14942 0.428711 7.79258 0.44043 6.67285 0.487305C5.55723 0.53418 4.79024 0.706055 4.12578 0.952148C3.43262 1.20996 2.84609 1.5498 2.26367 2.1084C1.67715 2.66309 1.32031 3.22168 1.04961 3.87793C0.791211 4.51465 0.610742 5.24121 0.561523 6.30371C0.512305 7.37402 0.5 7.71387 0.5 10.4287C0.5 13.1436 0.512305 13.4834 0.561523 14.5498C0.610742 15.6123 0.791211 16.3428 1.04961 16.9756C1.32031 17.6357 1.67715 18.1943 2.26367 18.749C2.84609 19.3037 3.43262 19.6475 4.12168 19.9014C4.79024 20.1475 5.55313 20.3193 6.66875 20.3662C7.78848 20.4131 8.14531 20.4248 10.9959 20.4248C13.8465 20.4248 14.2033 20.4131 15.323 20.3662C16.4387 20.3193 17.2057 20.1475 17.8701 19.9014C18.5592 19.6475 19.1457 19.3037 19.7281 18.749C20.3105 18.1943 20.6715 17.6357 20.9381 16.9795C21.1965 16.3428 21.377 15.6162 21.4262 14.5537C21.4754 13.4873 21.4877 13.1475 21.4877 10.4326C21.4877 7.71777 21.4754 7.37793 21.4262 6.31152C21.377 5.24902 21.1965 4.51855 20.9381 3.88574C20.6797 3.22168 20.3229 2.66309 19.7363 2.1084C19.1539 1.55371 18.5674 1.20996 17.8783 0.956055C17.2098 0.709961 16.4469 0.538086 15.3313 0.491211C14.2074 0.44043 13.8506 0.428711 11 0.428711Z" fill="white"/>
<path d="M11 5.29199C8.02227 5.29199 5.60645 7.59277 5.60645 10.4287C5.60645 13.2646 8.02227 15.5654 11 15.5654C13.9777 15.5654 16.3936 13.2646 16.3936 10.4287C16.3936 7.59277 13.9777 5.29199 11 5.29199ZM11 13.7607C9.06816 13.7607 7.50137 12.2686 7.50137 10.4287C7.50137 8.58887 9.06816 7.09668 11 7.09668C12.9318 7.09668 14.4986 8.58887 14.4986 10.4287C14.4986 12.2686 12.9318 13.7607 11 13.7607Z" fill="white"/>
<path d="M17.866 5.08887C17.866 5.75293 17.3 6.28809 16.6068 6.28809C15.9096 6.28809 15.3477 5.74903 15.3477 5.08887C15.3477 4.42481 15.9137 3.88965 16.6068 3.88965C17.3 3.88965 17.866 4.42871 17.866 5.08887Z" fill="white"/>
</g>
<defs>
<clipPath id="clip0_22_286">
<rect width="21" height="20" fill="white" transform="translate(0.5 0.428711)"/>
</clipPath>
</defs>
</svg>
