<svg width="21" height="21" viewBox="0 0 21 21" fill="none" xmlns="http://www.w3.org/2000/svg">
<g opacity="0.8" clip-path="url(#clip0_22_287)">
<path d="M19.0195 0.428711H1.97656C1.16016 0.428711 0.5 1.07324 0.5 1.87012V18.9834C0.5 19.7803 1.16016 20.4287 1.97656 20.4287H19.0195C19.8359 20.4287 20.5 19.7803 20.5 18.9873V1.87012C20.5 1.07324 19.8359 0.428711 19.0195 0.428711ZM6.43359 17.4717H3.46484V7.9248H6.43359V17.4717ZM4.94922 6.62402C3.99609 6.62402 3.22656 5.85449 3.22656 4.90527C3.22656 3.95605 3.99609 3.18652 4.94922 3.18652C5.89844 3.18652 6.66797 3.95605 6.66797 4.90527C6.66797 5.85059 5.89844 6.62402 4.94922 6.62402ZM17.543 17.4717H14.5781V12.8311C14.5781 11.7256 14.5586 10.2998 13.0352 10.2998C11.4922 10.2998 11.2578 11.5068 11.2578 12.7529V17.4717H8.29688V7.9248H11.1406V9.22949H11.1797C11.5742 8.47949 12.543 7.68652 13.9844 7.68652C16.9883 7.68652 17.543 9.66309 17.543 12.2334V17.4717Z" fill="white"/>
</g>
<defs>
<clipPath id="clip0_22_287">
<rect width="20" height="20" fill="white" transform="translate(0.5 0.428711)"/>
</clipPath>
</defs>
</svg>
