<svg width="49" height="60" viewBox="0 0 49 60" fill="none" xmlns="http://www.w3.org/2000/svg">
<g opacity="0.75">
<path d="M10.3333 1.11017H27.8792C30.4042 1.11017 32.8177 2.11525 34.5941 3.89044L34.9408 4.25568L45.3949 15.8719C46.9647 17.6163 47.8333 19.8806 47.8333 22.2274V49.3895C47.8333 54.6362 43.5801 58.8895 38.3333 58.8895H10.3333C5.08664 58.8895 0.833344 54.6362 0.833344 49.3895V10.6102C0.833344 5.36346 5.08664 1.11017 10.3333 1.11017Z" stroke="#00183E" stroke-opacity="0.5"/>
<path d="M23.6641 36.4069H16.098L14.5523 41.1865C14.535 41.2737 14.4858 41.3512 14.4143 41.4039C14.3428 41.4565 14.2542 41.4806 14.1658 41.4713H10.3421C10.1184 41.4713 10.0574 41.3493 10.1184 41.1052L16.6675 22.2509C16.7286 22.0476 16.7896 21.8238 16.8709 21.5798C16.9528 21.1439 16.9936 20.7012 16.993 20.2577C16.9869 20.2068 17.0002 20.1554 17.0304 20.1139C17.0606 20.0724 17.1053 20.0439 17.1557 20.034H22.4235C22.5862 20.034 22.6675 20.095 22.6879 20.1967L30.1116 41.1459C30.1726 41.3696 30.1116 41.4713 29.9082 41.4713H25.6574C25.5855 41.4782 25.5134 41.4596 25.4539 41.4187C25.3944 41.3777 25.3512 41.3172 25.3319 41.2476L23.6641 36.4069ZM17.2777 32.2781H22.4438C22.3218 31.8509 22.1591 31.3425 21.976 30.8137C21.793 30.2848 21.6099 29.6747 21.4269 29.0645C21.2438 28.4543 21.0404 27.8238 20.837 27.1933C20.6336 26.5628 20.4506 25.973 20.2879 25.3831C20.1252 24.7933 19.9828 24.2848 19.8404 23.7967H19.7997C19.6169 24.6832 19.3861 25.559 19.1082 26.4204C18.8031 27.3967 18.498 28.4137 18.1726 29.4306C17.8879 30.4679 17.5828 31.4238 17.2777 32.2781Z" fill="#00183E" fill-opacity="0.5"/>
<path d="M27.3959 39.4715H26.8354L25.5551 35.7557L25.0902 34.407H14.643L14.1947 35.7918L13.0043 39.4715H12.8031L14.6068 34.2781H25.0951L24.3666 31.7283C24.2321 31.2575 24.0573 30.7128 23.8656 30.159C23.699 29.6776 23.5283 29.1105 23.3422 28.4901C23.1522 27.8567 22.9428 27.2056 22.7406 26.5789C22.5421 25.9636 22.3692 25.4078 22.2182 24.8611L27.3959 39.4715Z" stroke="#00183E" stroke-opacity="0.5" stroke-width="4"/>
<path d="M34.5455 23.512C34.2116 23.5193 33.8797 23.4601 33.5689 23.3379C33.2581 23.2157 32.9748 23.0329 32.7353 22.8001C32.2693 22.2906 32.0211 21.619 32.0438 20.9289C32.0318 20.5927 32.0908 20.2577 32.2169 19.9458C32.3431 19.6339 32.5336 19.3521 32.776 19.1187C33.2649 18.6567 33.9135 18.4016 34.5862 18.4069C35.3794 18.4069 35.9896 18.6509 36.437 19.1187C36.8876 19.6119 37.1283 20.2612 37.1082 20.9289C37.1206 21.2726 37.064 21.6152 36.9417 21.9366C36.8195 22.258 36.634 22.5516 36.3963 22.8001C36.1567 23.0442 35.8674 23.2341 35.5482 23.3569C35.2289 23.4797 34.887 23.5326 34.5455 23.512ZM32.2675 41.1662V25.5052C32.2675 25.3018 32.3489 25.2204 32.5319 25.2204H36.559C36.7421 25.2204 36.8235 25.3221 36.8235 25.5052V41.1662C36.8235 41.3899 36.7421 41.4916 36.559 41.4916H32.5726C32.5299 41.4951 32.4869 41.489 32.4469 41.4736C32.4068 41.4581 32.3708 41.4339 32.3415 41.4026C32.3121 41.3713 32.2903 41.3338 32.2774 41.2929C32.2646 41.2519 32.2613 41.2086 32.2675 41.1662Z" fill="#00183E" fill-opacity="0.5"/>
<path d="M34.8235 27.2203V39.4918H34.2679V27.2203H34.8235ZM34.5706 20.4068H34.5862C34.7778 20.4068 34.8772 20.4362 34.9173 20.4517C34.9425 20.4615 34.9584 20.4724 34.9749 20.4869C35.0645 20.5936 35.1129 20.7288 35.1087 20.8687L35.1067 20.9351L35.1096 21.0015C35.111 21.0396 35.108 21.0775 35.1018 21.1148L35.0725 21.2252C35.0471 21.292 35.0083 21.3529 34.9602 21.4058C34.9227 21.442 34.8791 21.471 34.8304 21.4898L34.7493 21.5113C34.7219 21.5155 34.6941 21.5169 34.6663 21.5152L34.5843 21.5103L34.5013 21.5123C34.4329 21.5137 34.3647 21.5021 34.3011 21.4771L34.2093 21.4302C34.197 21.4223 34.1866 21.4118 34.1751 21.4029C34.0864 21.2857 34.0374 21.1428 34.0423 20.9947L34.0452 20.9263L34.0423 20.858C34.0413 20.8303 34.0433 20.8021 34.0481 20.775L34.0706 20.6959C34.0908 20.6458 34.122 20.6009 34.1604 20.563C34.2437 20.4879 34.3454 20.4369 34.4544 20.4166L34.5706 20.4068Z" stroke="#00183E" stroke-opacity="0.5" stroke-width="4"/>
</g>
</svg>
