<svg width="25" height="25" viewBox="0 0 25 25" fill="none" xmlns="http://www.w3.org/2000/svg">
<path d="M20.5 11.7397H22.5C22.5 6.60972 18.627 2.74072 13.49 2.74072V4.74072C17.552 4.74072 20.5 7.68372 20.5 11.7397Z" fill="#00183E"/>
<path d="M13.5 8.74072C15.603 8.74072 16.5 9.63772 16.5 11.7407H18.5C18.5 8.51572 16.725 6.74072 13.5 6.74072V8.74072ZM16.922 14.1837C16.7299 14.0091 16.4774 13.9159 16.2178 13.9239C15.9583 13.932 15.712 14.0405 15.531 14.2267L13.138 16.6877C12.562 16.5777 11.404 16.2167 10.212 15.0277C9.02004 13.8347 8.65904 12.6737 8.55204 12.1017L11.011 9.70772C11.1975 9.52685 11.3062 9.28054 11.3142 9.02092C11.3222 8.76131 11.2289 8.50876 11.054 8.31672L7.35904 4.25372C7.18408 4.06107 6.94092 3.94422 6.68119 3.92798C6.42146 3.91173 6.16564 3.99738 5.96804 4.16672L3.79804 6.02772C3.62515 6.20123 3.52196 6.43217 3.50804 6.67672C3.49304 6.92672 3.20704 12.8487 7.79904 17.4427C11.805 21.4477 16.823 21.7407 18.205 21.7407C18.407 21.7407 18.531 21.7347 18.564 21.7327C18.8086 21.719 19.0394 21.6154 19.212 21.4417L21.072 19.2707C21.2415 19.0732 21.3273 18.8175 21.3113 18.5578C21.2952 18.298 21.1785 18.0548 20.986 17.8797L16.922 14.1837Z" fill="#00183E"/>
</svg>
