<svg width="100" height="99" viewBox="0 0 100 99" fill="none" xmlns="http://www.w3.org/2000/svg">
<mask id="mask0_63_432" style="mask-type:alpha" maskUnits="userSpaceOnUse" x="0" y="0" width="100" height="99">
<rect x="0.5" width="99" height="99" fill="#D9D9D9"/>
</mask>
<g mask="url(#mask0_63_432)">
<path d="M29.375 98.75C27.1062 98.75 25.1641 97.9422 23.5484 96.3266C21.9328 94.7109 21.125 92.7688 21.125 90.5V16.25C21.125 13.9812 21.9328 12.0391 23.5484 10.4234C25.1641 8.80781 27.1062 8 29.375 8H70.625C72.8937 8 74.8359 8.80781 76.4516 10.4234C78.0672 12.0391 78.875 13.9812 78.875 16.25V29.0375C80.1125 29.5187 81.1094 30.275 81.8656 31.3062C82.6219 32.3375 83 33.5063 83 34.8125V43.0625C83 44.3688 82.6219 45.5375 81.8656 46.5688C81.1094 47.6 80.1125 48.3563 78.875 48.8375V90.5C78.875 92.7688 78.0672 94.7109 76.4516 96.3266C74.8359 97.9422 72.8937 98.75 70.625 98.75H29.375ZM29.375 90.5H70.625V16.25H29.375V90.5ZM41.3375 67.8125L54.125 55.025V65.75H62.375V41H37.625V49.25H48.35L35.5625 62.0375L41.3375 67.8125Z" fill="#00183E"/>
</g>
</svg>
