<svg width="105" height="104" viewBox="0 0 105 104" fill="none" xmlns="http://www.w3.org/2000/svg">
<mask id="mask0_63_420" style="mask-type:alpha" maskUnits="userSpaceOnUse" x="0" y="0" width="105" height="104">
<rect x="0.5" width="104" height="104" fill="#D9D9D9"/>
</mask>
<g mask="url(#mask0_63_420)">
<path d="M89.7667 95.3334L78.0667 83.6334C76.4778 84.5723 74.8167 85.3125 73.0833 85.8542C71.35 86.3959 69.5444 86.6667 67.6667 86.6667C62.25 86.6667 57.6458 84.7709 53.8542 80.9792C50.0625 77.1875 48.1667 72.5834 48.1667 67.1667C48.1667 61.75 50.0625 57.1459 53.8542 53.3542C57.6458 49.5625 62.25 47.6667 67.6667 47.6667C73.0833 47.6667 77.6875 49.5625 81.4792 53.3542C85.2708 57.1459 87.1667 61.75 87.1667 67.1667C87.1667 69.0445 86.8958 70.85 86.3542 72.5834C85.8125 74.3167 85.0722 75.9778 84.1333 77.5667L95.8333 89.2667L89.7667 95.3334ZM67.6667 78C70.7 78 73.2639 76.9528 75.3583 74.8584C77.4528 72.7639 78.5 70.2 78.5 67.1667C78.5 64.1334 77.4528 61.5695 75.3583 59.475C73.2639 57.3806 70.7 56.3334 67.6667 56.3334C64.6333 56.3334 62.0694 57.3806 59.975 59.475C57.8806 61.5695 56.8333 64.1334 56.8333 67.1667C56.8333 70.2 57.8806 72.7639 59.975 74.8584C62.0694 76.9528 64.6333 78 67.6667 78ZM91.5 43.3334H82.8333V21.6667H74.1667V34.6667H30.8333V21.6667H22.1667V82.3334H43.8333V91H22.1667C19.7833 91 17.7431 90.1514 16.0458 88.4542C14.3486 86.757 13.5 84.7167 13.5 82.3334V21.6667C13.5 19.2834 14.3486 17.2431 16.0458 15.5459C17.7431 13.8487 19.7833 13 22.1667 13H40.2583C41.0528 10.4723 42.6056 8.39587 44.9167 6.77087C47.2278 5.14587 49.7556 4.33337 52.5 4.33337C55.3889 4.33337 57.9708 5.14587 60.2458 6.77087C62.5208 8.39587 64.0556 10.4723 64.85 13H82.8333C85.2167 13 87.257 13.8487 88.9542 15.5459C90.6514 17.2431 91.5 19.2834 91.5 21.6667V43.3334ZM52.5 21.6667C53.7278 21.6667 54.7569 21.2514 55.5875 20.4209C56.4181 19.5903 56.8333 18.5612 56.8333 17.3334C56.8333 16.1056 56.4181 15.0764 55.5875 14.2459C54.7569 13.4153 53.7278 13 52.5 13C51.2722 13 50.2431 13.4153 49.4125 14.2459C48.5819 15.0764 48.1667 16.1056 48.1667 17.3334C48.1667 18.5612 48.5819 19.5903 49.4125 20.4209C50.2431 21.2514 51.2722 21.6667 52.5 21.6667Z" fill="#00183E"/>
</g>
</svg>
