<svg width="90" height="90" viewBox="0 0 90 90" fill="none" xmlns="http://www.w3.org/2000/svg">
<mask id="mask0_418_600" style="mask-type:alpha" maskUnits="userSpaceOnUse" x="0" y="0" width="90" height="90">
<rect width="90" height="90" fill="#D9D9D9"/>
</mask>
<g mask="url(#mask0_418_600)">
<path d="M77.25 82.5L67.125 72.375C65.75 73.1875 64.3125 73.8281 62.8125 74.2969C61.3125 74.7656 59.75 75 58.125 75C53.4375 75 49.4531 73.3594 46.1719 70.0781C42.8906 66.7969 41.25 62.8125 41.25 58.125C41.25 53.4375 42.8906 49.4531 46.1719 46.1719C49.4531 42.8906 53.4375 41.25 58.125 41.25C62.8125 41.25 66.7969 42.8906 70.0781 46.1719C73.3594 49.4531 75 53.4375 75 58.125C75 59.75 74.7656 61.3125 74.2969 62.8125C73.8281 64.3125 73.1875 65.75 72.375 67.125L82.5 77.25L77.25 82.5ZM58.125 67.5C60.75 67.5 62.9688 66.5938 64.7813 64.7812C66.5938 62.9688 67.5 60.75 67.5 58.125C67.5 55.5 66.5938 53.2812 64.7813 51.4688C62.9688 49.6562 60.75 48.75 58.125 48.75C55.5 48.75 53.2812 49.6562 51.4688 51.4688C49.6562 53.2812 48.75 55.5 48.75 58.125C48.75 60.75 49.6562 62.9688 51.4688 64.7812C53.2812 66.5938 55.5 67.5 58.125 67.5ZM78.75 37.5H71.25V18.75H63.75V30H26.25V18.75H18.75V71.25H37.5V78.75H18.75C16.6875 78.75 14.9219 78.0156 13.4531 76.5469C11.9844 75.0781 11.25 73.3125 11.25 71.25V18.75C11.25 16.6875 11.9844 14.9219 13.4531 13.4531C14.9219 11.9844 16.6875 11.25 18.75 11.25H34.4062C35.0938 9.0625 36.4375 7.26562 38.4375 5.85938C40.4375 4.45312 42.625 3.75 45 3.75C47.5 3.75 49.7344 4.45312 51.7031 5.85938C53.6719 7.26562 55 9.0625 55.6875 11.25H71.25C73.3125 11.25 75.0781 11.9844 76.5469 13.4531C78.0156 14.9219 78.75 16.6875 78.75 18.75V37.5ZM45 18.75C46.0625 18.75 46.9531 18.3906 47.6719 17.6719C48.3906 16.9531 48.75 16.0625 48.75 15C48.75 13.9375 48.3906 13.0469 47.6719 12.3281C46.9531 11.6094 46.0625 11.25 45 11.25C43.9375 11.25 43.0469 11.6094 42.3281 12.3281C41.6094 13.0469 41.25 13.9375 41.25 15C41.25 16.0625 41.6094 16.9531 42.3281 17.6719C43.0469 18.3906 43.9375 18.75 45 18.75Z" fill="white"/>
</g>
</svg>
