<svg width="22" height="22" viewBox="0 0 22 22" fill="none" xmlns="http://www.w3.org/2000/svg">
<path opacity="0.8" fill-rule="evenodd" clip-rule="evenodd" d="M11 0.571289C5.19964 0.571289 0.5 5.24246 0.5 10.9982C0.5 16.4695 4.74984 20.9604 10.1483 21.3913V21.4289H11C16.8004 21.4289 21.5 16.7578 21.5 11.002C21.5 5.24666 16.8008 0.571289 11 0.571289ZM13.3201 19.4303C12.6614 19.6087 11.9719 19.713 11.2612 19.7336H11C9.81486 19.7336 8.6842 19.5004 7.65204 19.0779C8.65141 15.5014 11.3606 12.9397 14.4614 11.795C14.9966 14.3708 14.6081 17.1312 13.3201 19.4303ZM13.9893 10.1658C10.4502 11.4319 7.35924 14.2838 6.11729 18.264C3.75796 16.6967 2.20341 14.0266 2.20341 10.9982C2.20341 9.92432 2.3987 8.89549 2.75597 7.94492C3.8209 8.47194 4.95962 8.84473 6.13065 9.05204C7.62238 9.32368 9.15075 9.31465 10.6381 9.04829C11.4848 8.89648 12.3113 8.65467 13.1038 8.33245C13.4566 8.91489 13.7533 9.52865 13.9893 10.1658ZM16.1033 11.3294C16.6147 13.674 16.4596 16.1587 15.6434 18.4223C18.065 16.9245 19.6998 14.2905 19.7924 11.2729C18.5887 11.0562 17.3339 11.0826 16.1033 11.3294ZM19.6741 9.54109C18.341 9.35513 16.9701 9.41557 15.6309 9.69968C15.3672 8.96478 15.0343 8.25683 14.6377 7.58459C15.7379 6.95347 16.7426 6.15912 17.6063 5.23289C18.6627 6.42581 19.3969 7.90679 19.6741 9.54109ZM6.43161 7.38708C5.41431 7.2072 4.42621 6.8829 3.50411 6.42519C4.29716 5.14617 5.41289 4.08527 6.73872 3.35467L6.74894 3.35786L6.74932 3.35798L6.74937 3.35799L6.74939 3.358C6.89383 3.40315 7.03172 3.44625 7.16451 3.49359C7.2135 3.51217 7.26147 3.53023 7.30836 3.54789L7.3091 3.54817L7.30913 3.54818L7.30916 3.54819C7.52448 3.62928 7.71674 3.70168 7.87736 3.77564L7.9232 3.7984L7.93413 3.80344C8.03555 3.85029 8.1817 3.91948 8.31341 3.98186C8.38339 4.01504 8.44935 4.04626 8.50234 4.07116L8.50431 4.07223C8.5486 4.09586 8.58581 4.11571 8.6205 4.13624C8.64872 4.15442 8.67392 4.16916 8.68743 4.17701C8.71214 4.19138 8.73754 4.20559 8.75847 4.21716C8.77636 4.22704 8.79391 4.23665 8.80707 4.24382L8.8137 4.24744L8.82771 4.25513L8.82948 4.25614C8.849 4.26732 8.87269 4.28074 8.8997 4.29606C8.95761 4.32888 9.03082 4.37037 9.11121 4.4171C9.16788 4.45008 9.2209 4.48153 9.26415 4.50816C9.2963 4.52799 9.31378 4.5395 9.32042 4.54388L9.32081 4.54414C9.32353 4.54594 9.32417 4.54636 9.32308 4.54553L9.36042 4.57363L9.40189 4.59811C9.46515 4.63539 9.52749 4.67824 9.60528 4.73169L9.6053 4.73171L9.60533 4.73173L9.60566 4.73195C9.64116 4.75636 9.67991 4.78299 9.72342 4.81232L9.75299 4.83223L9.77812 4.84631C9.77809 4.84636 9.77927 4.84714 9.78178 4.84882C9.78853 4.85334 9.80495 4.86433 9.83354 4.88467C9.87754 4.91596 9.93067 4.95523 9.98914 4.9989L10.0584 5.05072C10.094 5.07741 10.1301 5.10446 10.1608 5.12727C10.2013 5.15742 10.2509 5.19402 10.2957 5.22485C10.9493 5.72134 11.5468 6.28826 12.0787 6.91314C11.5128 7.1188 10.9295 7.27712 10.3356 7.38362C9.04106 7.61544 7.71875 7.6217 6.43607 7.38789L6.43384 7.38747L6.43161 7.38708ZM11 2.26284C13.0191 2.26284 14.8791 2.93921 16.3637 4.07587C15.5853 4.91224 14.6739 5.62454 13.6759 6.18196C12.9897 5.31577 12.1959 4.53591 11.3109 3.8663L11.2895 3.85013L11.2673 3.83543L11.2613 3.83126C11.2566 3.82795 11.2503 3.82347 11.2422 3.81765C11.2258 3.80585 11.2056 3.79097 11.1813 3.77291C11.1538 3.75244 11.1261 3.73174 11.0965 3.7095L11.0964 3.70945L11.0903 3.70489C11.0663 3.68685 11.0408 3.66776 11.0129 3.64695C10.9526 3.60191 10.8865 3.55291 10.8257 3.50967C10.7832 3.47944 10.7222 3.43669 10.6599 3.39899L10.6203 3.37182L10.6201 3.37167L10.6201 3.37166C10.539 3.31588 10.4174 3.2322 10.3067 3.1647C10.2033 3.09272 10.0636 3.01071 9.97204 2.95747C9.88342 2.90592 9.78797 2.85181 9.72871 2.81822L9.72825 2.81796L9.68336 2.79247C9.67224 2.78602 9.66259 2.78068 9.65882 2.77859L9.65829 2.7783L9.63529 2.76567L9.62751 2.76141C9.61429 2.75418 9.60107 2.74695 9.58732 2.73934C9.57157 2.73065 9.55884 2.72347 9.54955 2.7181L9.54315 2.71365L9.52054 2.69993C9.43874 2.65029 9.3535 2.60495 9.30723 2.58034L9.30625 2.57981L9.29013 2.57124L9.27035 2.56066L9.25004 2.55113C9.20939 2.53207 9.14931 2.50364 9.08109 2.47135C9.69875 2.33484 10.3409 2.26284 11 2.26284Z" fill="white"/>
</svg>
